<svg width="319" height="90" viewBox="0 0 319 90" fill="none" xmlns="http://www.w3.org/2000/svg">
<g clip-path="url(#clip0_1620_5366)">
<path d="M76.3347 61.7645C76.3347 68.1516 76.2909 74.5424 76.3639 80.9295C76.3822 82.6239 75.765 83.1279 74.129 83.1206C61.5374 83.0658 48.9312 83.4274 36.3505 82.9928C18.9312 82.3866 4.44062 69.7585 0.836233 52.8065C-3.79432 31.0123 11.3207 9.80958 33.4437 7.08895C54.4272 4.51074 73.1941 19.0488 76.0426 40.0616C76.2398 41.515 76.3347 42.9611 76.3347 44.4219C76.3347 50.2028 76.3347 55.98 76.3347 61.7609V61.7645ZM38.3408 44.977C38.3408 53.7378 38.3408 62.5022 38.3408 71.263C38.3408 75.7731 38.611 76.0031 43.1065 75.302C64.5903 71.9605 76.0791 49.3044 65.7078 30.2089C60.4382 20.5022 51.9732 15.1486 40.8168 14.4292C38.4723 14.2795 38.3445 14.4986 38.3445 16.865C38.3372 26.2356 38.3445 35.6063 38.3445 44.977H38.3408Z" fill="#DCDCDC"/>
<path d="M144.083 38.7462C148.864 34.7474 153.206 34.3457 157.391 37.4388C157.73 37.6908 158.066 37.9647 158.355 38.2714C160.02 40.0499 159.98 40.0134 161.861 38.3043C165.136 35.328 168.931 34.6305 173.035 36.1972C176.658 37.5776 179.05 41.4339 179.05 45.6299C179.05 50.5563 178.933 55.4826 179.01 60.4053C179.035 62.2313 178.294 62.706 176.625 62.6476C174.109 62.5599 173.886 62.4869 173.875 60.3834C173.85 55.9428 173.886 51.5021 173.857 47.0651C173.828 42.8107 171.659 40.1339 168.251 40.0681C164.574 39.9951 161.802 42.9969 161.766 47.1783C161.729 51.5569 161.766 55.9355 161.748 60.314C161.737 62.4686 161.536 62.6184 159.067 62.622C156.555 62.622 156.354 62.4832 156.343 60.3579C156.321 55.7346 156.368 51.1114 156.314 46.4918C156.277 43.2854 154.674 40.9994 152.15 40.3238C149.076 39.4985 146.092 41.0322 144.785 44.1619C144.193 45.5751 143.897 47.0578 143.905 48.6062C143.923 52.6196 143.835 56.6366 143.937 60.6464C143.992 62.7389 142.729 62.633 141.319 62.6366C139.902 62.6366 138.69 62.7243 138.715 60.6281C138.803 53.2075 138.763 45.787 138.733 38.37C138.726 36.9495 138.807 35.8941 140.716 35.9196C143.674 35.9598 143.696 35.8758 143.905 38.2568C143.915 38.3737 143.981 38.4832 144.08 38.7498L144.083 38.7462Z" fill="#DCDCDC"/>
<path d="M292.951 39.2043C293.087 38.9706 293.181 38.8756 293.196 38.7697C293.525 36.0856 294.708 35.3187 297.363 35.9943C298.217 36.2134 298.353 36.7904 298.353 37.4952C298.356 45.3357 298.349 53.1763 298.367 61.0205C298.367 62.2073 297.812 62.6674 296.691 62.62C296.205 62.5981 295.716 62.5798 295.234 62.6273C293.707 62.7734 293.112 62.0612 293.255 60.5895C293.295 60.1769 293.262 59.7533 293.262 58.8878C290.103 61.8239 286.758 63.4088 282.712 62.8829C278.684 62.3607 275.572 60.3668 273.239 57.0399C269.532 51.7557 270.306 43.6486 275.01 39.113C279.987 34.3108 286.389 34.3181 292.955 39.2043H292.951ZM293.598 49.1958C293.55 44.2365 289.362 39.9785 284.589 40.0369C279.659 40.099 275.715 44.2219 275.733 49.298C275.751 54.1404 279.9 58.2706 284.716 58.2377C289.537 58.2049 293.645 54.0199 293.598 49.1958Z" fill="#DCDCDC"/>
<path d="M128.799 39.2464C128.868 38.7096 128.967 38.4175 128.934 38.1363C128.755 36.4674 129.471 35.8794 131.139 35.9196C134.024 35.9926 134.05 35.9306 134.05 38.8849C134.05 45.8234 134.068 52.7583 134.035 59.6968C134.028 60.9786 134.598 62.706 132.224 62.6293C129.81 62.5526 128.762 62.9981 128.905 59.9999C128.912 59.8393 128.788 59.6713 128.642 59.2805C125.183 62.4102 121.301 63.7431 116.722 62.5343C113.362 61.6469 110.791 59.6859 108.936 56.8666C105.292 51.3377 105.609 43.4315 111.796 38.2933C115.783 34.9811 123.018 33.6299 128.795 39.2464H128.799ZM129.292 49.0699C129.277 44.1436 125.304 40.0973 120.421 40.0352C115.783 39.9768 111.503 44.2823 111.445 49.0699C111.383 54.0401 115.52 58.2726 120.403 58.2361C125.38 58.1996 129.306 54.1497 129.292 49.0699Z" fill="#DCDCDC"/>
<path d="M198.554 50.9732C195.512 50.9732 192.466 51.006 189.424 50.9622C187.894 50.9403 187.675 51.5757 188.15 52.8867C190.155 58.4339 197.473 60.1576 202.472 56.0273C204.057 54.7163 205.39 54.7455 207.107 55.2385C208.538 55.6512 208.509 56.2866 207.76 57.3201C204.276 62.1113 197.111 64.2477 191.546 62.1369C185.236 59.7449 181.551 53.3432 182.73 46.8283C183.925 40.2221 189.494 35.4382 196.158 35.2994C201.914 35.1752 207.786 39.6561 209.298 45.3237C210.696 50.5569 210.39 50.9768 205.12 50.9768C202.929 50.9768 200.738 50.9768 198.547 50.9768L198.554 50.9732ZM195.994 46.9342C198.306 46.9342 200.617 46.9452 202.929 46.9306C203.776 46.9269 204.565 46.8794 204.203 45.6049C203.323 42.4899 199.792 39.9847 196.217 40.0066C192.631 40.0285 188.982 42.541 188.11 45.5063C187.781 46.6311 188.226 46.9452 189.242 46.9379C191.491 46.9269 193.744 46.9342 195.994 46.9342Z" fill="#DCDCDC"/>
<path d="M242.473 49.0527C242.506 42.987 246.442 37.7027 252.238 35.9571C258.077 34.197 264.274 36.4063 267.55 41.5007C268.036 42.2566 269.248 43.1257 268.112 44.1556C266.907 45.2475 264.154 45.1124 263.358 44.046C261.481 41.5189 259.18 39.8573 255.853 39.9815C251.752 40.1349 248.283 43.2828 247.414 47.738C246.647 51.6528 248.988 55.9292 252.778 57.5433C256.558 59.1501 260.48 57.9705 263.055 54.4465C263.938 53.2377 266.94 53.1136 268.01 54.231C268.51 54.7533 268.218 55.2426 267.992 55.7356C264.475 63.2913 253.41 65.3436 247.3 59.654C244.182 56.7508 242.498 53.3071 242.48 49.0527H242.473Z" fill="#DCDCDC"/>
<path d="M218.502 39.9411C220.828 36.8443 223.56 35.5698 226.941 35.5881C228.431 35.5954 229.067 36.2052 228.972 37.6733C228.928 38.3379 228.957 39.0099 228.957 39.6782C228.957 40.697 228.512 41.0038 227.46 40.9088C222.055 40.4158 218.473 43.6806 218.407 49.1365C218.359 52.9673 218.308 56.8017 218.429 60.6289C218.494 62.7287 217.253 62.6301 215.832 62.6374C214.39 62.6447 213.225 62.6812 213.25 60.607C213.342 53.19 213.28 45.7695 213.287 38.3489C213.287 36.0519 213.389 35.9642 215.628 35.946C218.283 35.9241 218.319 35.9569 218.396 38.2832C218.407 38.641 218.44 39.0026 218.502 39.9338V39.9411Z" fill="#DCDCDC"/>
<path d="M307.971 39.9406C310.206 36.968 312.802 35.6205 316.045 35.6095C318.174 35.6022 318.411 35.8432 318.437 38.038C318.444 38.5858 318.43 39.1336 318.426 39.6813C318.426 40.7002 317.981 41.007 316.929 40.912C311.517 40.419 307.898 43.724 307.869 49.1287C307.847 52.9595 307.774 56.7939 307.898 60.6211C307.963 62.7173 306.736 62.6369 305.312 62.6406C303.877 62.6406 302.698 62.699 302.723 60.6211C302.814 53.2005 302.752 45.78 302.76 38.3594C302.76 36.0587 302.862 35.9711 305.097 35.9528C307.752 35.9309 307.792 35.9638 307.869 38.2863C307.879 38.6442 307.912 39.0021 307.974 39.9406H307.971Z" fill="#DCDCDC"/>
<path d="M238.112 49.2537C238.112 53.0809 238.042 56.9117 238.137 60.7352C238.192 62.9007 236.779 62.5976 235.45 62.6305C234.087 62.6633 232.941 62.6816 232.959 60.7169C233.028 53.1247 233.039 45.5288 232.955 37.9366C232.933 35.8441 234.146 35.9464 235.559 35.9391C236.991 35.9317 238.21 35.877 238.145 37.9585C238.028 41.7199 238.112 45.4887 238.112 49.2574V49.2537Z" fill="#DCDCDC"/>
<path d="M232.248 28.862C232.24 26.9813 233.665 25.4548 235.465 25.4073C237.338 25.3598 238.861 26.9228 238.85 28.8766C238.839 30.7609 237.393 32.218 235.538 32.2144C233.679 32.2107 232.251 30.7573 232.244 28.862H232.248Z" fill="#DCDCDC"/>
</g>
<defs>
<clipPath id="clip0_1620_5366">
<rect width="318.396" height="90" fill="white"/>
</clipPath>
</defs>
</svg>
