<svg width="91" height="90" viewBox="0 0 91 90" fill="none" xmlns="http://www.w3.org/2000/svg">
<g clip-path="url(#clip0_1620_5337)">
<path d="M0.00023687 77.9581V11.9936C1.98038 5.97263 5.98092 1.98014 11.9938 0H77.9584C86.7885 3.33244 90.2981 9.70754 90.1129 19.1012C89.7668 37.18 90.0405 55.267 89.9922 73.3459C89.968 83.1983 83.2468 89.9356 73.4024 89.9678C54.422 90.0241 35.4336 89.9678 16.4531 89.992C13.0644 89.992 9.92511 89.2192 7.05954 87.4001C3.50976 85.1462 1.59401 81.6689 -0.0078125 77.9581H0.00023687ZM85.7985 45.0201C85.7985 35.7312 85.8226 26.4422 85.7985 17.1532C85.7743 8.63697 81.5162 3.90394 73.0885 3.82345C54.3174 3.64636 35.5382 3.64636 16.759 3.82345C8.66136 3.90394 3.96053 8.49209 3.87198 16.5334C3.6627 35.5058 3.65465 54.4862 3.88003 73.4585C3.97663 81.3469 8.88674 85.7177 16.7429 85.7338C35.5221 85.766 54.2932 85.766 73.0724 85.7338C81.3391 85.7177 85.7663 81.2342 85.7985 72.8709C85.8387 63.582 85.8065 54.293 85.8065 45.004L85.7985 45.0201Z" fill="#DCDCDC"/>
<path d="M44.6752 82.3212C35.3862 82.3212 26.1053 82.3454 16.8163 82.3212C10.6425 82.2971 7.29392 79.1498 7.26172 72.9437C7.17318 54.2692 7.17318 35.5946 7.26172 16.9282C7.29392 10.5692 10.5861 7.29306 16.9612 7.26086C35.6357 7.17232 54.3103 7.16427 72.9768 7.26086C79.2392 7.29306 82.3301 10.5772 82.3382 16.7913C82.3623 35.5625 82.3704 54.3336 82.3382 73.1128C82.3301 79.2947 79.3277 82.289 73.1217 82.3212C63.6395 82.3695 54.1493 82.3373 44.6591 82.3373L44.6752 82.3212ZM22.9982 62.6647C22.9982 66.7538 22.9902 70.8428 22.9982 74.9319C22.9982 76.1554 23.0626 77.6365 24.6162 77.6928C28.7696 77.8377 33.0197 78.5944 36.9639 76.5418C42.4697 73.6762 42.9929 66.2225 37.7688 63.1476C35.5553 61.8436 36.0624 61.2319 37.5434 59.8474C39.6604 57.8753 40.5056 55.3478 39.4511 52.4983C38.4047 49.6488 36.1268 48.3288 33.229 48.1114C30.943 47.9424 28.6408 48.0873 26.3548 47.9746C23.9561 47.8538 22.8855 48.8278 22.9499 51.299C23.0546 55.0822 22.9741 58.8734 22.9821 62.6647H22.9982ZM43.7656 40.0459C43.7012 39.8447 43.5885 39.3618 43.4114 38.8949C40.2641 30.7006 37.1088 22.5144 33.9534 14.3202C33.5027 13.153 32.8909 12.179 31.4259 12.1307C29.7919 12.0744 29.1882 13.1611 28.6972 14.4329C25.5096 22.7157 22.314 30.9985 19.1506 39.2893C18.8528 40.062 18.1445 41.0924 19.3277 41.6317C20.4627 42.1468 21.5172 41.68 22.0243 40.4806C22.6119 39.1042 23.1592 37.7116 23.6019 36.2788C24.2137 34.3067 25.3648 33.3167 27.53 33.4133C30.1219 33.534 32.7138 33.5099 35.3057 33.4294C37.1973 33.373 38.2679 34.2263 38.8716 35.9488C39.4351 37.5426 40.079 39.1122 40.7712 40.6577C41.1898 41.5914 42.0269 41.9295 43.017 41.6961C43.7093 41.5351 43.9507 41.0119 43.7656 40.0379V40.0459ZM64.7986 11.4787C62.5689 11.3982 60.4037 11.6961 58.3752 12.662C55.0186 14.2477 53.5456 17.065 54.1091 20.7355C54.4954 23.2469 56.1214 24.8085 58.1579 26.0159C60.6532 27.4889 63.2612 28.7607 65.7162 30.2901C67.7286 31.5458 68.8394 33.4213 68.2357 35.8925C67.6481 38.2912 65.7243 39.1203 63.559 39.4905C61.2247 39.893 59.0031 39.3135 56.7895 38.6454C55.9604 38.3958 54.8254 37.2045 54.2298 38.6454C53.618 40.1184 54.6162 41.1568 56.0248 41.5512C58.834 42.332 61.6755 42.67 64.6054 42.0583C68.1069 41.3177 70.7793 39.724 71.6406 36.0213C72.3731 32.8498 70.8195 29.7347 67.31 27.5533C64.9435 26.0722 62.416 24.8487 60.0173 23.416C58.0774 22.2568 56.8539 20.5665 57.3771 18.1839C57.8923 15.8093 59.7517 14.8112 61.9411 14.449C64.0259 14.1028 66.1187 14.2477 68.1793 14.8112C68.9923 15.0366 70.0709 15.5517 70.4251 14.2477C70.7471 13.0806 69.9905 12.3964 68.944 11.9939C67.5998 11.4787 66.1992 11.527 64.8067 11.4948L64.7986 11.4787ZM59.8402 78.3851C61.7398 78.2805 63.6315 78.0309 65.4104 77.3226C70.5298 75.2861 71.8016 69.2491 67.9781 65.2807C66.497 63.7433 64.6618 62.7291 62.8104 61.739C61.2247 60.8938 59.6148 60.0889 58.1015 59.123C56.2502 57.9397 55.3647 56.1849 55.8558 53.9875C56.3226 51.8705 57.9406 50.8643 59.9126 50.4779C62.094 50.0433 64.2835 50.1721 66.4487 50.7436C67.2698 50.9609 68.3323 51.4519 68.7106 50.1721C69.0487 49.021 68.3484 48.3288 67.302 47.878C63.9937 46.4613 57.1759 47.6848 54.5196 50.2123C51.7345 52.8605 51.5976 56.9496 54.1815 59.9118C55.7994 61.7631 57.9647 62.8257 60.0978 63.9204C61.9652 64.8702 63.9051 65.7234 65.3701 67.3011C68.0184 70.1506 67.0444 73.9257 63.3417 75.1331C60.4278 76.083 57.6266 75.439 54.8335 74.4973C54.0366 74.2316 52.9016 73.1128 52.4187 74.7951C52.0726 76.0186 52.7729 76.9121 53.9642 77.3387C55.8638 78.0068 57.8359 78.3046 59.8402 78.4012V78.3851Z" fill="#DCDCDC"/>
<path d="M26.2734 69.1362C26.2734 63.88 26.5069 63.5419 30.0969 63.5741C35.2646 63.6224 37.9772 65.6267 37.9289 69.3696C37.8806 73.0884 35.2565 75.0525 30.3384 75.0444C26.3539 75.0444 26.2734 74.9237 26.2734 69.1362Z" fill="#DCDCDC"/>
<path d="M30.4425 50.7924C32.8332 50.7924 35.1353 51.0822 36.1898 53.6419C37.043 55.7025 36.4957 57.6263 34.9421 59.1316C32.8493 61.152 30.2011 60.9507 27.6011 60.5161C26.6674 60.3631 26.4098 59.5099 26.3615 58.6808C26.2891 57.3849 26.2649 56.0889 26.273 54.793C26.3132 51.0661 26.6674 50.7361 30.4264 50.7924H30.4425Z" fill="#DCDCDC"/>
<path d="M31.6502 16.51C33.0991 20.4864 34.5802 24.4547 35.9888 28.4472C36.4718 29.8156 35.8037 30.6286 34.4112 30.5723C31.7871 30.4676 28.4707 31.828 26.7401 29.8398C25.3556 28.246 27.6577 25.6702 28.3097 23.5371C29.0342 21.1867 29.976 18.9007 30.8292 16.5824C31.1029 16.5583 31.3765 16.5261 31.6502 16.502V16.51Z" fill="#DCDCDC"/>
</g>
<defs>
<clipPath id="clip0_1620_5337">
<rect width="90.1288" height="90" fill="white"/>
</clipPath>
</defs>
</svg>
