<svg width="405" height="90" viewBox="0 0 405 90" fill="none" xmlns="http://www.w3.org/2000/svg">
<g clip-path="url(#clip0_1610_5015)">
<path fill-rule="evenodd" clip-rule="evenodd" d="M16.2457 56.0926C16.2457 68.1947 24.6483 75.4062 35.117 75.4062C59.934 75.4062 59.934 36.9101 35.117 36.9101C24.6483 36.9101 16.2457 43.9885 16.2457 56.0926ZM53.9883 24.4202H69.6291V87.8951H53.9902V78.6242C50.371 86.0922 40.4174 89.698 33.3074 89.8244C14.4361 89.9565 0.476562 78.3656 0.476562 56.0926C0.476562 34.2044 15.0834 22.7447 33.6952 22.8759C42.227 22.8759 50.371 26.8674 53.9902 33.1732V24.4202H53.9883ZM121.91 87.8951V53.9038C121.91 45.5357 117.513 37.9403 108.853 37.9403C100.322 37.9403 95.281 45.5357 95.281 53.9038V87.8951H79.5119V24.29H95.4103L95.281 32.0156C98.6417 25.5778 106.009 23.2617 112.084 23.2617C119.71 23.2617 127.338 26.3504 130.956 35.1072C136.643 26.0948 144.011 23.5164 152.284 23.5164C170.379 23.5164 179.299 34.5902 179.299 53.6453V87.8951H163.53V53.6453C163.53 45.2772 160.04 38.196 151.508 38.196C142.977 38.196 137.678 45.5357 137.678 53.9038V87.8951H121.91ZM204.872 7.27234C204.872 11.1921 201.545 14.3699 197.439 14.3699H196.666C192.561 14.3699 189.232 11.1921 189.232 7.27234C189.232 3.35159 192.561 0.173828 196.666 0.173828H197.439C201.545 0.173828 204.872 3.35255 204.872 7.27234ZM189.362 24.1598H205.131V87.8941H189.362V24.1598Z" fill="#DCDCDC"/>
<path d="M325.564 75.405C350.382 75.405 350.382 36.909 325.564 36.909C315.094 36.909 306.692 43.9874 306.692 56.0914C306.692 68.1954 315.094 75.405 325.564 75.405ZM344.435 33.173V24.42H360.076V87.893H344.435V78.623C340.816 86.0911 330.862 89.6959 323.754 89.8232C306.505 89.9429 293.392 80.2392 291.262 61.5642C289.582 63.4348 287.877 65.2822 286.146 67.1059C279.556 74.034 272.392 80.5599 272.234 80.7074C265.155 87.2343 257.671 89.8223 248.648 89.8223C230.165 89.8223 214.783 78.7494 214.783 56.2216C214.783 33.6881 230.165 22.6152 248.648 22.6152C257.698 22.6152 264.676 25.1898 271.656 32.0135L261.705 42.443C257.956 39.0967 253.302 37.4212 248.908 37.4212C238.31 37.4212 230.554 45.1478 230.554 56.2216C230.554 68.3218 238.827 74.7578 248.648 74.7578C251.128 74.7578 253.631 74.4792 255.95 73.6088C260.681 71.8318 268.38 64.5533 271.469 61.4234C275.177 57.6654 293.389 38.9014 298.235 33.6919C298.523 33.3482 298.834 33.0303 299.137 32.701C299.249 32.5746 299.376 32.43 299.415 32.3783V32.4118C305.453 26.064 314.214 22.8048 324.142 22.8737C332.673 22.8737 340.817 26.8653 344.435 33.173ZM386.206 31.756C391.118 23.903 397.711 22.7445 404.173 22.7445V38.325C395.901 38.325 386.206 42.7015 386.206 54.4207V87.893H370.437V24.421H386.206V31.7579V31.756Z" fill="#DCDCDC"/>
</g>
<defs>
<clipPath id="clip0_1610_5015">
<rect width="405" height="90" fill="white"/>
</clipPath>
</defs>
</svg>
