<svg width="390" height="90" viewBox="0 0 390 90" fill="none" xmlns="http://www.w3.org/2000/svg">
<g clip-path="url(#clip0_1620_5345)">
<path d="M118.619 36.6071C119.226 38.0734 120.328 38.0835 121.258 38.4071C130.097 41.4408 134.981 47.5082 135.446 56.0633C135.901 64.3453 131.047 72.2734 123.159 75.8835C118.993 77.7846 114.594 78.9071 109.973 78.9172C100.548 78.9374 91.1134 78.8161 81.6887 79.0386C77.4314 79.1397 75.6516 77.7442 75.6921 73.2644C75.8438 51.715 75.8235 30.1554 75.7022 8.60598C75.682 4.50036 77.0876 2.86216 81.2842 2.99362C90.8606 3.29699 100.467 2.6498 110.013 4.05542C114.038 4.64193 117.972 5.49137 121.653 7.24081C127.397 9.96103 130.289 14.6329 130.37 20.9026C130.451 26.9498 127.922 31.6116 122.361 34.4329C121.056 35.0902 119.833 35.9093 118.619 36.6172V36.6071ZM89.0303 55.1228H89.0808C89.0808 58.6521 89.0101 62.1914 89.1011 65.7206C89.182 68.7644 90.4258 71.2217 93.146 72.8296C101.236 77.6127 114.382 73.7195 118.477 65.2959C124.282 53.3633 117.082 40.9453 103.582 40.561C86.1179 40.0655 89.3741 38.7711 89.0303 53.606C89.0202 54.1116 89.0303 54.6172 89.0303 55.1228ZM89.0303 22.2981C89.0303 23.1374 89.0303 23.9768 89.0303 24.8161C89.0303 37.0622 90.628 38.3262 102.813 35.7071C103.137 35.6363 103.471 35.5655 103.794 35.4846C109.285 34.2206 113.886 31.9352 115.565 25.8981C118.427 15.5936 111.561 7.6453 99.2943 7.15991C91.1134 6.83631 89.0707 8.74755 89.0404 16.7768C89.0404 18.6172 89.0404 20.4678 89.0404 22.3082L89.0303 22.2981Z" fill="#DCDCDC"/>
<path d="M63.6478 21.6205C62.6872 29.3868 57.6107 34.2508 51.877 39.0239C44.4647 45.2025 35.2725 48.1958 27.5265 53.707C19.6186 59.3295 12.3782 65.4778 8.08041 74.4879C7.11974 76.5003 6.03771 79.3014 2.98378 78.2598C0.374793 77.3699 0.0107484 74.7003 0.142209 72.3036C0.44558 66.7317 3.25682 62.434 7.55457 59.0868C13.6827 54.3239 20.195 50.107 26.9501 46.3149C30.2973 44.434 31.177 43.4227 27.395 40.6014C14.8355 31.2373 11.8725 18.607 18.5164 5.41038C20.3164 1.84072 22.9759 -0.050296 27.0107 0.566558C31.5107 1.2542 33.6141 4.50027 32.5725 8.95982C31.6928 12.7317 30.7321 16.4834 29.8422 20.2452C29.1343 23.2284 28.9928 26.2924 29.4883 29.2857C30.1658 33.3711 32.3703 36.7486 36.3445 37.952C40.1467 39.0946 41.9265 35.5149 43.8984 33.1486C46.386 30.1553 48.004 26.6059 49.5006 23.0059C50.2692 21.1452 51.0478 19.2542 52.1096 17.5553C53.8995 14.6632 56.5692 13.4497 59.9063 14.5924C63.2231 15.725 63.749 18.5059 63.6478 21.6306V21.6205Z" fill="#DCDCDC"/>
<path d="M163.831 79.9787C148.875 81.3035 139.208 68.572 138.419 58.6619C137.024 41.0462 149.563 31.6518 162.264 30.4788C167.27 30.0136 172.336 29.872 177.251 31.5709C182.59 33.4215 184.228 36.2529 182.873 41.5619C182.479 43.1091 181.821 44.4641 180.173 44.899C178.424 45.3641 177.251 44.2821 176.421 42.9675C174.884 40.5507 173.408 38.1237 171.274 36.1518C167.674 32.8046 162.871 32.3597 158.856 35.1001C152.91 39.1653 149.26 51.1889 151.484 59.4304C153.982 68.6934 159.827 73.8102 168.827 74.4473C172.842 74.7304 176.31 72.8192 179.89 71.3934C181.073 70.9181 182.519 69.7147 183.49 71.2316C184.481 72.7889 183.187 74.0428 182.013 75.0743C178.687 78.0068 171.365 79.9788 163.842 79.9686L163.831 79.9787Z" fill="#DCDCDC"/>
<path d="M22.3904 78.8157C14.0982 78.8966 12.7836 76.7528 15.9083 70.3011C17.8803 66.2259 20.8634 63.1315 24.6555 60.7854C28.0836 58.6618 31.5319 56.5686 35.0308 54.5663C38.196 52.7461 41.4016 50.1371 45.1937 52.9787C49.1679 55.9517 50.4926 60.2798 50.1286 65.0326C49.7342 70.1292 46.4982 73.1629 41.9881 75.0135C35.3443 77.7337 28.2353 77.936 22.3803 78.8157H22.3904Z" fill="#DCDCDC"/>
<path d="M188.182 55.5584C188.182 49.3292 188.182 43.1 188.182 36.8707C188.182 34.464 188.687 32.1382 191.721 32.6337C194.573 33.1089 199.053 31.9764 199.144 36.7089C199.396 49.6629 199.326 62.637 199.154 75.591C199.103 79.6764 195.614 78.7764 193.056 78.9381C190.083 79.1202 188.162 78.1292 188.182 74.7415C188.232 68.3404 188.192 61.9494 188.182 55.5483V55.5584Z" fill="#DCDCDC"/>
<path d="M244.821 80.8789C238.49 80.9093 233.96 78.4621 232.372 74.0935C231.927 72.8598 231.149 71.3126 232.777 70.5441C234.253 69.8463 234.658 71.4239 235.244 72.3946C238.349 77.5014 243.486 79.4227 248.916 77.38C251.383 76.4497 253.467 74.9025 253.537 71.98C253.598 69.2295 251.697 67.6621 249.371 66.8632C246.358 65.8317 243.233 65.134 240.159 64.2744C235.214 62.889 232.352 59.4407 232.797 55.416C233.262 51.2093 237.075 47.9328 241.959 47.5385C248.148 47.043 253.366 49.298 254.973 53.2216C255.469 54.4351 256.288 55.9418 254.65 56.771C253.194 57.5092 252.637 55.9924 252.061 55.0317C249.361 50.4407 245.478 49.0755 240.452 50.6328C237.954 51.4115 236.377 53.0598 236.083 55.6385C235.76 58.4901 237.681 59.9666 240.027 60.7958C242.404 61.6351 244.871 62.1812 247.308 62.8385C254.67 64.8205 257.299 67.5205 256.743 72.5666C256.146 77.9261 251.95 80.8587 244.81 80.889L244.821 80.8789Z" fill="#DCDCDC"/>
<path d="M301.169 77.2278C294.151 80.9289 288.892 80.3728 285.687 75.9739C282.157 71.1301 282.835 63.4548 286.981 59.2379C289.509 56.6593 292.512 56.4267 295.809 56.6593C298.105 56.8211 299.985 59.7435 302.756 57.448C303.434 56.8817 304.263 58.5098 304.263 59.5312C304.233 66.9233 304.445 74.3357 303.949 81.6975C303.707 85.3683 301.472 88.4829 297.296 88.857C292.998 89.2413 288.397 90.0907 285.525 85.4087C285.171 84.8222 284.969 84.175 286.02 83.0323C289.671 85.9143 293.766 89.0188 298.681 85.4694C301.28 83.5885 301.492 80.7368 301.169 77.2379V77.2278ZM301.3 67.9851C301.209 62.6256 298.216 58.884 293.938 58.8031C289.6 58.7222 286.293 62.8885 286.354 68.3593C286.415 73.1728 290.156 77.6121 294.019 77.4503C297.902 77.2784 301.381 72.7683 301.3 67.9851Z" fill="#DCDCDC"/>
<path d="M63.6777 63.4233C63.7384 68.0649 62.4946 70.9065 58.8137 71.0885C54.8193 71.2806 54.7081 68.0245 54.5867 65.0211C54.344 59.0649 53.171 53.6143 46.7193 51.0862C45.435 50.5806 44.5755 49.4278 44.889 47.8402C45.1822 46.3435 46.3148 45.575 47.6294 45.1402C51.6946 43.7952 55.1328 45.393 57.5496 48.3458C61.362 52.9975 62.8485 58.7413 63.6777 63.4233Z" fill="#DCDCDC"/>
<path d="M259.918 69.6538C259.959 60.9673 263.751 56.5887 270.405 56.5684C276.27 56.5482 280.153 60.401 280.467 66.2763C280.608 68.8448 279.263 69.583 277.16 69.6336C273.792 69.7246 270.425 69.5932 267.068 69.7651C263.154 69.9673 262.426 71.6561 264.691 74.9123C267.664 79.21 272.013 79.5639 275.845 75.883C276.816 74.9527 277.534 72.3437 279.081 73.7493C280.8 75.3269 278.95 77.228 277.554 78.3302C274.136 81.0403 270.213 81.8089 266.198 79.8673C261.597 77.6426 259.949 73.537 259.908 69.6437L259.918 69.6538ZM270.213 66.9943C272.448 65.6594 276.776 68.8044 276.958 64.2842C277.089 61.119 274.207 58.955 270.728 58.8538C266.997 58.7426 264.044 60.9066 263.983 64.3246C263.903 68.9055 268.19 65.6392 270.213 66.9943Z" fill="#DCDCDC"/>
<path d="M357.28 56.5587C363.752 56.6699 368.241 61.8879 368.049 69.0778C367.867 75.9542 363.205 80.8789 356.905 80.8587C350.332 80.8283 345.671 75.3272 345.913 67.8946C346.146 60.907 350.616 56.4474 357.28 56.5587ZM365.005 68.4002C365.016 63.2025 361.143 58.662 356.794 58.7733C352.648 58.8845 348.987 63.2834 348.927 68.2486C348.856 73.9823 352.496 78.4519 357.148 78.3306C361.638 78.2092 364.995 73.9722 365.005 68.4002Z" fill="#DCDCDC"/>
<path d="M380.205 56.5586C382.238 56.5788 384.291 56.5889 385.949 58.0148C387.243 59.1271 388.952 60.7856 387.759 62.2114C386.161 64.1226 385.454 61.453 384.493 60.6541C382.986 59.4103 381.358 58.6721 379.416 58.8137C377.273 58.9755 375.301 59.7136 374.876 62.0698C374.461 64.3653 376.302 65.3665 378.051 66.0035C380.256 66.8024 382.602 67.2271 384.827 67.9754C387.436 68.8451 389.104 70.635 389.276 73.4968C389.458 76.5406 388.002 78.5934 385.261 79.8676C380.772 81.9507 374.694 80.8283 372.358 77.4002C371.589 76.2777 370.659 74.8417 371.974 73.8002C373.379 72.6878 373.915 74.3766 374.512 75.2766C375.837 77.2788 377.758 78.3002 380.033 78.3002C382.663 78.3002 385.282 77.6024 385.909 74.6092C386.566 71.4844 384.028 70.6856 381.732 69.9474C380.61 69.5934 379.457 69.3406 378.314 69.0676C374.704 68.1979 371.134 67.0148 371.63 62.3732C372.166 57.3676 376.019 56.5586 380.195 56.5788L380.205 56.5586Z" fill="#DCDCDC"/>
<path d="M328.591 68.4107V69.4219C328.591 78.9983 327.59 80.0905 318.226 80.7882C313.757 81.1219 310.116 78.5433 309.712 74.0433C309.287 69.3714 309.52 64.6388 309.53 59.9264C309.53 58.9354 309.681 57.641 310.945 57.6309C312.219 57.6208 312.371 58.9051 312.391 59.9062C312.462 63.6073 312.462 67.3085 312.493 71.0096C312.533 74.7107 313.554 77.9264 317.842 78.2298C322.089 78.5231 324.486 75.7422 325.113 71.95C325.709 68.3399 325.426 64.5781 325.608 60.8871C325.659 59.7849 325.264 58.0759 326.741 57.9141C328.733 57.6916 328.44 59.6433 328.5 60.8466C328.632 63.3646 328.541 65.8927 328.541 68.4107C328.551 68.4107 328.571 68.4107 328.581 68.4107H328.591Z" fill="#DCDCDC"/>
<path d="M199.186 21.4184C198.862 24.8768 197.264 27.2633 193.533 27.0914C190.084 26.9296 188.477 24.4117 188.477 21.3072C188.477 17.96 190.165 15.3409 193.897 15.3813C197.638 15.4117 199.034 17.9802 199.186 21.4285V21.4184Z" fill="#DCDCDC"/>
<path d="M333.669 68.0765C333.669 65.7304 333.547 63.3641 333.709 61.0282C333.841 59.1169 333.153 55.6181 336.955 59.0259C338.492 60.4012 339.423 57.9641 340.727 57.4787C341.85 57.0641 343.154 56.336 343.903 57.5697C344.843 59.1169 343.235 59.5417 342.224 59.9462C336.45 62.2821 336.733 67.2372 336.581 72.2124C336.51 74.4978 337.886 78.6439 335.085 78.6338C332.496 78.6338 334.033 74.4271 333.679 72.0911C333.477 70.7765 333.638 69.4113 333.649 68.0664L333.669 68.0765Z" fill="#DCDCDC"/>
</g>
<defs>
<clipPath id="clip0_1620_5345">
<rect width="389.326" height="90" fill="white"/>
</clipPath>
</defs>
</svg>
