<svg width="760" height="90" viewBox="0 0 760 90" fill="none" xmlns="http://www.w3.org/2000/svg">
<g clip-path="url(#clip0_1620_5391)">
<path d="M557.261 41.512C568.127 46.6712 572.14 54.2479 569.897 64.5412C567.654 74.685 559.23 81.2897 548.463 81.2897C538.593 81.2897 528.748 81.19 518.879 81.3396C515.938 81.3894 514.866 80.5919 514.891 77.5014C515.016 55.5937 514.991 33.6861 514.891 11.7784C514.891 9.01192 515.838 8.08975 518.53 8.16453C528.175 8.46361 537.846 7.61621 547.466 8.66299C561.298 10.1584 569.249 24.265 562.918 35.8544C561.647 38.1723 559.753 39.8671 557.261 41.4871V41.512ZM539.964 66.7345C542.058 66.7345 544.151 66.8591 546.22 66.7096C550.257 66.3856 553.398 63.1455 553.747 59.1079C554.071 55.2946 551.753 52.0297 547.84 50.8084C545.023 49.9112 542.107 50.2103 539.241 50.1854C533.924 50.1687 531.266 52.8438 531.266 58.2107C531.266 63.9431 534.157 66.7843 539.939 66.7345H539.964ZM537.696 37.275C539.191 37.275 540.687 37.3997 542.157 37.2501C546.145 36.8015 548.837 33.9602 548.936 30.1719C549.036 26.5331 546.668 23.6669 542.755 22.9441C541.31 22.6699 539.79 22.6699 538.294 22.6949C530.194 22.7946 531.39 21.5484 531.266 29.5488C531.266 30.0473 531.266 30.5457 531.266 31.0442C531.34 38.272 530.468 37.2501 537.671 37.275H537.696Z" fill="#DCDCDC"/>
<path d="M708.697 44.6519C708.697 33.6856 708.772 22.7193 708.647 11.778C708.622 8.98653 709.619 8.16406 712.286 8.16406C726.542 8.23883 740.798 8.23883 755.029 8.16406C757.696 8.16406 758.868 8.96161 758.668 11.778C758.469 14.6441 758.494 17.5602 758.668 20.4513C758.793 22.9686 757.721 23.7661 755.328 23.7412C746.555 23.6664 737.782 23.8159 729.009 23.6664C726.043 23.6166 724.747 24.464 725.096 27.5545C725.296 29.4237 725.246 31.3428 725.096 33.237C724.922 35.5798 725.894 36.4023 728.212 36.3773C736.287 36.3026 744.362 36.3275 752.437 36.3773C756.45 36.3773 756.624 36.6016 756.649 40.6143C756.649 43.007 756.5 45.3996 756.674 47.7922C756.899 50.7332 755.628 51.5308 752.836 51.4809C744.761 51.3314 736.686 51.5308 728.611 51.3812C725.844 51.3314 724.847 52.2286 725.072 54.9702C725.271 57.4376 725.296 59.9798 725.072 62.4472C724.772 65.5875 726.118 66.3352 729.034 66.2854C737.907 66.1359 746.78 66.2106 755.652 66.2355C759.341 66.2355 759.615 66.5097 759.64 70.0987C759.665 72.8901 759.615 75.6815 759.64 78.4729C759.665 80.392 759.042 81.4139 756.874 81.389C741.72 81.3391 726.567 81.3391 711.438 81.389C709.071 81.389 708.647 80.2176 708.672 78.2237C708.722 67.058 708.672 55.8923 708.672 44.7516L708.697 44.6519Z" fill="#DCDCDC"/>
<path d="M662.115 7.41548C673.305 7.1164 682.278 11.2786 690.104 18.4067C692.098 20.2012 692.372 21.5969 689.979 23.3166C687.736 24.9366 685.593 26.781 683.599 28.725C681.779 30.4945 680.508 30.2702 678.614 28.6004C671.087 21.9707 662.364 20.6996 653.267 24.5129C642.4 29.049 637.565 41.1119 641.403 52.801C644.743 62.9697 656.407 69.3252 667.399 66.9574C671.984 65.9605 676.122 64.1411 679.387 60.6768C680.708 59.281 681.779 59.281 683.175 60.5521C685.468 62.6208 687.786 64.6894 690.253 66.5337C692.521 68.2285 692.147 69.5744 690.328 71.2941C684.072 77.2259 676.795 81.2385 668.196 82.2604C656.532 83.6561 645.84 81.0392 636.568 73.4375C617.402 57.6859 619.521 26.5068 640.681 13.4968C647.385 9.35951 654.613 7.16625 662.115 7.44041V7.41548Z" fill="#DCDCDC"/>
<path d="M33.4722 41.5859C45.0117 47.418 49.149 57.0135 45.1861 68.2789C42.4695 75.9802 35.1171 81.563 26.8176 81.7873C18.8671 82.0117 10.8916 81.7873 2.91609 81.887C5.1178e-05 81.912 0.0249746 80.1424 0.0249746 78.1236C0.0249746 62.4966 0.0249746 46.8697 0.0249746 31.2178C0.0249746 24.638 0.0997448 18.0832 5.12642e-05 11.5034C-0.0497955 8.96121 0.822523 7.96428 3.4644 8.03905C9.94448 8.18859 16.3996 8.03905 22.8797 8.0889C30.905 8.13874 37.6593 12.7994 40.1765 19.9524C42.968 27.8531 40.7747 35.4548 34.17 40.7385C33.9457 40.913 33.7962 41.1871 33.4722 41.5859ZM6.57982 60.6523C6.57982 64.9391 6.60475 69.226 6.57982 73.4879C6.57982 75.3073 7.15306 76.2544 9.14693 76.2294C14.6301 76.1547 20.1132 76.4039 25.5714 76.1297C34.2199 75.706 40.6999 68.7773 40.5255 60.5277C40.351 51.8793 33.846 45.4491 24.9733 45.3244C19.8889 45.2497 14.8295 45.3743 9.74509 45.2746C7.45214 45.2247 6.50505 46.0472 6.5549 48.39C6.65459 52.4774 6.57982 56.5649 6.57982 60.6274V60.6523ZM6.57982 26.3827C6.57982 29.4732 6.70444 32.5637 6.5549 35.6542C6.43028 38.296 7.3026 39.4924 10.1189 39.3677C14.2064 39.1933 18.2938 39.3677 22.3563 39.3179C29.634 39.2182 35.0174 34.084 35.2168 27.1304C35.4162 19.8527 30.1823 14.0954 22.8049 13.7465C18.3437 13.5471 13.8325 13.7465 9.37124 13.6468C7.27768 13.597 6.5549 14.5441 6.60475 16.5379C6.67952 19.8278 6.60475 23.1177 6.60475 26.4076L6.57982 26.3827Z" fill="#DCDCDC"/>
<path d="M148.969 20.0274C148.146 21.5726 148.42 22.7939 148.42 23.9403C148.42 41.9849 148.395 60.0045 148.42 78.049C148.42 80.2423 148.346 81.9869 145.33 81.9121C143.012 81.8623 142.189 81.0647 142.189 78.7469C142.239 56.2161 142.214 33.7103 142.239 11.1796C142.239 10.058 141.915 8.56262 143.585 8.26353C145.33 7.96445 147.174 7.6903 148.47 9.48478C150.564 12.4008 152.732 15.267 154.851 18.1581C166.988 34.7072 179.151 51.2564 191.289 67.7806C191.687 68.3289 192.111 68.8772 192.684 69.6249C193.507 68.4784 193.208 67.3818 193.208 66.3849C193.208 48.2406 193.208 30.1213 193.208 11.9771C193.208 9.88355 193.083 7.96445 196.198 8.03922C198.491 8.08907 199.339 8.8617 199.339 11.2045C199.289 33.7352 199.314 56.241 199.289 78.7718C199.289 79.8933 199.613 81.3638 197.968 81.7127C196.522 82.0118 194.952 82.2112 193.781 80.9152C193.058 80.0927 192.435 79.1955 191.787 78.3232C178.054 59.6057 164.346 40.8633 150.614 22.1459C150.165 21.5228 149.642 20.9495 148.919 20.0772L148.969 20.0274Z" fill="#DCDCDC"/>
<path d="M375.794 45.175C375.794 66.8584 359.42 83.1084 337.686 83.0835C317.922 83.0586 299.977 68.7526 299.903 45.0504C299.828 21.2735 318.171 6.59363 338.11 6.79302C359.694 6.99241 375.819 23.2674 375.794 45.175ZM369.613 44.876C369.588 26.6071 355.756 12.5005 337.911 12.5254C319.866 12.5254 305.834 26.7567 305.809 44.9756C305.809 63.2445 319.717 77.3511 337.861 77.4259C355.905 77.5007 369.638 63.4189 369.613 44.876Z" fill="#DCDCDC"/>
<path d="M604.89 44.626C604.89 55.5674 604.79 66.5336 604.965 77.475C605.015 80.5406 603.968 81.5375 601.002 81.3132C598.136 81.1138 595.22 81.0889 592.354 81.3132C589.363 81.5375 588.391 80.5157 588.416 77.4501C588.565 63.1191 588.466 48.7882 588.466 34.4323C588.466 26.8556 588.565 19.3038 588.416 11.7271C588.366 8.91078 589.413 8.01354 592.055 8.13816C595.145 8.2877 598.236 8.2877 601.301 8.13816C603.968 8.01354 604.965 8.96063 604.94 11.752C604.815 22.6934 604.89 33.6597 604.89 44.6011V44.626Z" fill="#DCDCDC"/>
<path d="M120.231 81.8356C118.237 82.2094 117.09 81.1377 116.293 79.0442C114.448 74.209 112.33 69.4736 110.461 64.6384C109.738 62.7941 108.716 62.0215 106.697 62.0215C96.4287 62.0962 86.1603 62.0962 75.8918 62.0215C73.8481 62.0215 72.8761 62.8689 72.1782 64.6883C70.3339 69.5234 68.365 74.3087 66.396 79.1189C65.3742 81.6113 62.807 82.7079 60.3396 81.711C58.4455 80.9632 59.6169 79.6922 59.9907 78.7451C62.6824 71.9908 65.424 65.2615 68.1905 58.5322C74.6706 42.7806 81.1756 27.029 87.6557 11.2775C88.3535 9.55775 88.9517 8.06235 91.3194 8.03743C93.6871 8.0125 94.3351 9.45806 95.0579 11.1778C104.23 33.5839 113.451 55.9651 122.623 78.3712C123.944 81.5863 123.745 81.8356 120.206 81.8356H120.231ZM91.4689 18.2809C91.0203 18.8293 90.7711 19.0037 90.6465 19.2529C86.0356 30.5931 81.4747 41.9582 76.8389 53.2983C75.8918 55.6162 76.8888 56.0648 78.9574 56.0648C87.0326 56.0149 95.0828 56.0648 103.158 56.0648C106.847 56.0648 106.872 56.0149 105.526 52.6752C102.136 44.276 98.7466 35.8768 95.3321 27.4777C94.1108 24.4619 92.8148 21.4961 91.4689 18.3059V18.2809Z" fill="#DCDCDC"/>
<path d="M255.938 6.84437C267.552 6.69483 276.076 10.2589 283.453 16.8137C284.899 18.1097 285.971 19.2562 284.076 21.2002C282.332 22.9947 281.235 22.8203 279.466 21.1753C269.172 11.5549 257.109 9.98471 244.523 15.1688C232.311 20.2033 226.179 30.2474 225.681 43.3073C224.908 63.4204 239.239 78.0754 258.779 77.4025C266.705 77.1283 273.783 74.4615 279.516 68.7291C281.634 66.6106 283.603 66.9097 285.198 69.4519C286.17 70.9972 284.899 71.6452 284.126 72.4178C278.095 78.3496 270.767 81.789 262.418 82.8856C241.782 85.5773 223.363 71.8446 219.949 51.3326C215.961 27.456 233.432 6.79452 255.938 6.84437Z" fill="#DCDCDC"/>
<path d="M442.639 8.18708C453.606 8.18708 464.572 8.26185 475.538 8.13723C478.354 8.11231 479.426 8.98463 479.326 11.9007C479.052 20.4992 480.548 19.4525 471.625 19.4774C451.387 19.5272 431.15 19.4774 410.937 19.4774C406.276 19.4774 406.201 19.4026 406.201 14.8665C406.201 7.63877 405.653 8.18708 412.756 8.16216C422.725 8.16216 432.695 8.16216 442.664 8.16216L442.639 8.18708Z" fill="#DCDCDC"/>
<path d="M442.714 40.0166C431.872 40.0166 421.006 40.0166 410.164 40.0166C406.301 40.0166 406.201 39.9169 406.201 35.9541C406.201 28.153 405.802 29.1001 413.155 29.0752C433.866 29.0503 454.552 29.0752 475.264 29.0752C479.202 29.0752 479.326 29.1749 479.301 33.063C479.227 41.0634 480.298 39.9418 472.298 39.9917C462.453 40.0415 452.584 39.9917 442.739 39.9917L442.714 40.0166Z" fill="#DCDCDC"/>
<path d="M442.763 60.8528C431.922 60.8528 421.055 60.8528 410.213 60.8528C406.5 60.8528 406.201 60.5786 406.201 57.0146C406.201 48.6154 405.603 49.9363 413.08 49.9114C433.691 49.8616 454.278 49.9114 474.89 49.9114C479.251 49.9114 479.301 49.9114 479.251 54.1235C479.201 61.5506 480.198 60.8528 472.597 60.8777C462.652 60.9026 452.683 60.8777 442.739 60.8777L442.763 60.8528Z" fill="#DCDCDC"/>
<path d="M442.763 81.2889C431.821 81.2889 420.855 81.2142 409.914 81.3388C407.023 81.3637 406.1 80.3917 406.15 77.5753C406.3 69.3008 405.677 70.3725 413.378 70.3476C433.89 70.3226 454.377 70.3476 474.889 70.3476C479.251 70.3476 479.3 70.3476 479.276 74.5845C479.226 82.236 480.148 81.2391 472.621 81.2889C462.677 81.3388 452.707 81.2889 442.763 81.2889Z" fill="#DCDCDC"/>
</g>
<defs>
<clipPath id="clip0_1620_5391">
<rect width="759.906" height="90" fill="white"/>
</clipPath>
</defs>
</svg>
