<svg width="403" height="90" viewBox="0 0 403 90" fill="none" xmlns="http://www.w3.org/2000/svg">
<g clip-path="url(#clip0_1617_5096)">
<path d="M0.0335373 43.9591C0.0335373 32.6944 0.0240111 21.4344 0.0335373 10.1696C0.0383004 7.20694 0.181194 7.06404 3.12004 7.05928C11.1316 7.05452 19.1479 6.88781 27.1499 7.13549C34.0898 7.34507 40.8677 8.60253 46.9264 12.3511C54.6045 17.1047 58.9485 24.0684 60.6156 32.8563C62.2303 41.3489 61.9207 49.7415 59.2581 57.9722C55.3095 70.1801 46.7406 77.2676 34.3518 79.9302C30.8604 80.6827 27.3214 81.0114 23.73 80.9733C16.8283 80.9018 9.92653 80.8828 3.02954 80.9923C0.752768 81.0304 -0.0140939 80.2398 0.000195489 77.9773C0.0811684 66.6363 0.0383004 55.2953 0.0335373 43.9544V43.9591ZM25.3304 23.7302C24.9351 23.7302 24.535 23.7302 24.1397 23.7302C21.4501 23.727 20.1037 25.0781 20.1005 27.7836C20.1005 38.0957 20.072 48.4126 20.1101 58.7248C20.1339 64.9168 19.2622 64.1976 25.7829 64.1595C32.4322 64.1214 37.3382 60.5205 39.3721 54.2379C41.1106 48.8747 41.2631 43.4066 40.6105 37.7957C39.5293 28.479 34.6423 23.8207 25.3257 23.7302H25.3304Z" fill="#DCDCDC"/>
<path d="M178.218 81.8959C163.134 81.8816 153.264 73.0793 151.464 58.1422C150.621 51.1309 151.283 44.3482 154.441 37.9895C158.323 30.1685 164.91 26.2151 173.455 25.1291C180.524 24.2288 187.235 25.0672 193.332 28.911C200.672 33.5407 204.015 40.6044 204.896 48.9637C205.349 53.2172 205.22 57.4992 204.344 61.7146C201.681 74.5654 192.16 81.9054 178.214 81.8911L178.218 81.8959ZM170.607 53.0076C170.512 56.2703 170.64 59.5092 171.74 62.6291C172.865 65.8204 175.008 67.5017 178.009 67.5208C181.2 67.5446 183.743 65.768 184.677 62.4719C186.401 56.3989 186.42 50.2593 184.62 44.2006C183.629 40.8759 181.667 39.5423 178.328 39.4851C174.937 39.4279 173.084 40.6854 171.793 43.8862C170.607 46.8251 170.535 49.9068 170.612 53.0076H170.607Z" fill="#DCDCDC"/>
<path d="M359.654 58.5537C354.972 58.5537 350.285 58.6156 345.603 58.5251C343.503 58.4822 343.184 59.4253 343.612 61.1781C344.513 64.8505 348.647 67.7893 353.267 67.9942C358.154 68.2133 362.96 67.7227 367.528 65.927C369.428 65.1792 370.09 65.7412 370.429 67.5702C370.91 70.1423 371.419 72.7239 372.186 75.2198C372.863 77.4204 372.02 78.3444 370.076 79.1399C366.504 80.6021 362.793 81.3356 358.992 81.6738C352.796 82.2263 346.613 82.2025 340.635 80.1401C332.39 77.2965 327.332 71.4331 325.174 63.1072C323.326 55.9673 323.555 48.7702 325.736 41.7399C328.423 33.0853 334.162 27.5744 343.141 25.6072C348.752 24.3783 354.334 24.445 359.855 25.974C369.209 28.5651 374.306 34.9429 375.868 44.3596C376.521 48.2987 376.335 52.2664 376.392 56.234C376.416 58.025 375.606 58.5822 373.93 58.5632C369.166 58.5108 364.403 58.5441 359.64 58.5441V58.5537H359.654ZM351.633 46.1696C351.633 46.1696 351.633 46.2077 351.633 46.2267C353.61 46.2267 355.587 46.1839 357.563 46.241C358.773 46.2791 359.026 45.8314 358.85 44.6692C358.264 40.8825 355.377 38.2104 351.595 38.1009C347.809 37.9913 344.708 40.5539 343.989 44.25C343.722 45.6123 344.079 46.1934 345.475 46.1743C347.528 46.1458 349.585 46.1696 351.643 46.1696H351.633Z" fill="#DCDCDC"/>
<path d="M102.15 58.5531C97.549 58.5531 92.9431 58.5293 88.3419 58.5627C85.9032 58.5817 85.5269 59.1485 86.2556 61.4491C87.4798 65.3168 91.0235 67.7793 95.5532 67.9984C100.602 68.2461 105.546 67.6793 110.29 65.9169C111.776 65.3644 112.453 65.5692 112.786 67.1696C113.405 70.118 114.115 73.0473 114.863 75.9671C115.268 77.5437 114.525 78.2963 113.205 78.8964C109.538 80.5587 105.642 81.3208 101.693 81.6638C95.8295 82.1734 89.9566 82.2877 84.2408 80.4825C72.9189 76.9054 67.5461 68.4699 66.8126 57.4386C66.4554 52.0753 66.5745 46.6739 68.3463 41.4345C71.509 32.0798 78.0202 26.8308 87.637 25.2209C92.562 24.3969 97.4251 24.6398 102.25 25.9258C111.248 28.3312 116.354 34.2946 118.183 43.2683C119.078 47.6694 118.611 52.1229 118.712 56.5574C118.745 58.1769 117.83 58.5579 116.435 58.5484C111.672 58.5246 106.913 58.5389 102.15 58.5389V58.5484V58.5531ZM94.1243 46.1643C94.1243 46.1643 94.1243 46.1929 94.1243 46.2024C96.0962 46.2024 98.0729 46.1786 100.045 46.2119C101.031 46.231 101.502 45.9214 101.431 44.8449C101.202 41.4821 98.0063 38.329 94.5292 38.1099C90.7473 37.8717 87.1035 40.5867 86.4843 44.0542C86.2271 45.4927 86.7701 46.1643 88.2038 46.1643C90.1757 46.1643 92.1524 46.1643 94.1243 46.1643Z" fill="#DCDCDC"/>
<path d="M244.391 54.0756C244.391 50.4223 244.319 46.7737 244.419 43.1252C244.472 41.2342 243.91 40.4054 241.871 40.415C237.77 40.4292 237.765 40.334 237.765 36.1282C237.765 33.5894 237.832 31.0459 237.746 28.5072C237.68 26.5162 238.404 25.635 240.495 25.6207C244.391 25.6017 244.386 25.5159 244.391 21.7293C244.391 19.1905 244.448 16.647 244.377 14.1083C244.334 12.5698 244.943 11.722 246.458 11.4695C251.383 10.6407 256.308 9.831 261.224 8.93078C263.072 8.59259 263.591 9.28325 263.548 11.0599C263.453 15.0276 263.61 19 263.486 22.9629C263.42 25.0873 264.253 25.7827 266.287 25.6731C268.502 25.554 270.731 25.6826 272.951 25.6445C274.627 25.616 275.437 26.3066 275.413 28.0452C275.365 31.3793 275.37 34.7135 275.413 38.0429C275.437 39.7719 274.632 40.4721 272.946 40.4388C270.564 40.3911 268.183 40.4816 265.801 40.4245C264.21 40.3864 263.491 40.977 263.505 42.6393C263.553 49.0695 263.486 55.4997 263.548 61.9252C263.577 64.9498 265.32 66.5692 268.392 66.5502C270.788 66.5359 273.117 66.0358 275.375 65.2498C276.68 64.7926 277.337 65.1546 277.328 66.6169C277.304 70.1082 277.29 73.5996 277.333 77.0909C277.352 78.5389 276.566 79.2343 275.337 79.6868C268.607 82.1732 261.748 82.7305 254.774 80.93C250.269 79.7678 247.392 76.767 245.82 72.4612C244.886 69.9082 244.424 67.2551 244.4 64.5354C244.367 61.044 244.391 57.5526 244.391 54.0565H244.381L244.391 54.0756Z" fill="#DCDCDC"/>
<path d="M306.397 17.2712C306.397 19.2527 306.478 21.2389 306.378 23.2156C306.283 25.1113 307.117 25.7448 308.922 25.6781C311.218 25.5876 313.523 25.6924 315.819 25.6543C317.424 25.6305 318.01 26.1973 317.924 27.9359C317.757 31.4129 317.81 34.9138 317.934 38.3957C317.986 39.8675 317.486 40.4486 316.081 40.4438C313.623 40.4343 311.165 40.4962 308.707 40.4438C307.14 40.4105 306.373 40.9392 306.388 42.6301C306.435 49.1317 306.364 55.6381 306.435 62.1398C306.464 65.0072 308.041 66.4837 310.918 66.5742C313.409 66.6552 315.79 65.9979 318.138 65.2739C319.61 64.8214 320.21 65.2406 320.191 66.7791C320.158 70.1895 320.158 73.5998 320.191 77.0102C320.201 78.2772 319.72 79.0774 318.5 79.5442C311.803 82.0925 304.968 82.7831 297.971 81.0589C292.008 79.5871 289.112 75.2955 287.869 69.6322C287.378 67.3887 287.235 65.0977 287.254 62.7828C287.316 56.2812 287.202 49.7747 287.316 43.2731C287.354 41.0535 286.554 40.3771 284.411 40.42C280.648 40.501 280.643 40.3962 280.638 36.5285C280.638 33.8326 280.71 31.1319 280.619 28.4408C280.548 26.3879 281.405 25.6353 283.439 25.6353C287.278 25.6353 287.278 25.5495 287.283 21.6819C287.283 19.0669 287.316 16.4472 287.283 13.8323C287.264 12.3271 287.797 11.5412 289.417 11.3078C294.351 10.5886 299.276 9.78363 304.182 8.88817C305.973 8.55951 306.464 9.22635 306.421 10.8553C306.364 12.994 306.407 15.1374 306.412 17.2808L306.397 17.2712Z" fill="#DCDCDC"/>
<path d="M144.452 43.9967C144.452 55.1805 144.452 66.3643 144.452 77.5481C144.452 80.9346 144.428 80.9489 140.956 80.9537C136.75 80.9585 132.544 80.8822 128.343 80.9823C126.233 81.0347 125.347 80.3202 125.352 78.1149C125.399 55.271 125.394 32.4271 125.356 9.57842C125.356 7.74939 125.999 7.01111 127.857 7.03968C132.458 7.11113 137.059 7.14924 141.656 7.02063C143.88 6.95871 144.504 7.83512 144.49 9.95471C144.414 21.2957 144.456 32.6414 144.456 43.9824L144.452 43.9967Z" fill="#DCDCDC"/>
<path d="M231.116 53.5222C231.116 61.7005 231.068 69.874 231.149 78.0523C231.168 80.1671 230.54 81.053 228.296 80.9911C223.776 80.8577 219.246 80.9054 214.721 80.9816C212.864 81.0102 211.978 80.4719 211.982 78.4238C212.035 61.7529 212.035 45.082 211.982 28.4111C211.978 26.3248 212.821 25.6009 214.821 25.6342C219.265 25.7104 223.714 25.739 228.158 25.6199C230.501 25.558 231.164 26.5535 231.144 28.754C231.063 37.0085 231.111 45.2677 231.111 53.5222H231.116Z" fill="#DCDCDC"/>
<path d="M391.222 81.9545C385.006 81.9355 380.558 77.5106 380.563 71.3471C380.563 65.4122 385.373 60.4872 391.165 60.4824C397.119 60.4824 402.125 65.4789 402.092 71.3947C402.058 77.2962 397.243 81.9688 391.218 81.9545H391.222Z" fill="#DCDCDC"/>
<path d="M221.423 19.4908C218.961 19.4908 216.503 19.4718 214.04 19.4956C212.654 19.5099 212.006 18.8907 212.016 17.4856C212.044 14.7087 212.044 11.927 212.016 9.1501C212.002 7.78785 212.53 7.07339 213.964 7.07815C219.041 7.09244 224.124 7.08767 229.201 7.07815C230.468 7.07815 231.111 7.65925 231.106 8.95482C231.097 11.8127 231.092 14.6706 231.111 17.5284C231.121 18.9526 230.402 19.5099 229.044 19.4956C226.505 19.4718 223.967 19.4908 221.423 19.4861V19.4908Z" fill="#DCDCDC"/>
</g>
<defs>
<clipPath id="clip0_1617_5096">
<rect width="402.5" height="90" fill="white"/>
</clipPath>
</defs>
</svg>
