<svg width="286" height="90" viewBox="0 0 286 90" fill="none" xmlns="http://www.w3.org/2000/svg">
<g clip-path="url(#clip0_1620_5379)">
<path d="M13.3999 66.8298C13.3224 65.1175 14.0056 63.6049 15.2584 62.3624C19.8583 57.8004 24.4633 53.2401 29.1097 48.7245C30.094 47.7677 31.0749 46.7989 32.0954 45.8782C32.6633 45.3654 32.6306 45.0315 32.0885 44.5032C26.4217 38.981 20.7789 33.4346 15.1311 27.8934C14.1209 26.9022 13.4618 25.732 13.2209 24.3175C12.8389 22.0786 13.4808 20.1358 15.0381 18.5646C18.2889 15.2881 21.5774 12.0477 24.9159 8.86064C27.8913 6.02121 31.9198 6.13995 34.8453 9.02584C38.1115 12.2473 41.3468 15.4997 44.6732 18.6593C47.6881 21.5245 50.5895 24.5016 53.5649 27.403C57.8344 31.5658 62.1159 35.7148 66.3647 39.8982C69.7514 43.2332 69.717 47.1241 66.2408 50.3989C64.6335 51.9133 63.0761 53.4758 61.4998 55.0212C57.2631 59.1771 53.0831 63.3915 48.7912 67.4906C45.8262 70.3231 43.0005 73.2985 40.0114 76.1001C38.17 77.8261 36.4182 79.6416 34.5923 81.3814C32.0523 83.8044 27.8087 83.8285 25.2859 81.3831C21.9509 78.1513 18.6468 74.8869 15.3393 71.6275C14.0314 70.3386 13.3448 68.7795 13.3999 66.828V66.8298Z" fill="#DCDCDC"/>
<path d="M176.037 45.4517C176.037 42.3266 176.058 39.2015 176.024 36.0764C176.015 35.2831 176.292 35.0094 177.072 35.0335C178.447 35.0766 179.823 35.0232 181.2 35.0542C181.856 35.0697 182.301 34.8597 182.737 34.3366C185.903 30.5214 192.89 30.1411 196.177 33.576C196.394 33.8031 196.591 34.0509 196.774 34.3056C197.464 35.2658 197.832 35.2727 198.62 34.3486C199.529 33.2851 200.622 32.4591 201.938 31.9755C204.058 31.1977 206.24 30.974 208.445 31.5333C211.8 32.3868 213.872 35.0094 214.246 38.711C214.571 41.9445 214.351 45.1849 214.404 48.4202C214.44 50.5695 214.396 52.7206 214.418 54.8717C214.425 55.5704 214.149 55.8543 213.451 55.8423C211.96 55.8182 210.469 55.813 208.978 55.8457C208.266 55.8612 208.035 55.5772 208.03 54.8786C208.003 50.5816 207.941 46.2828 207.892 41.9858C207.884 41.1547 207.87 40.3286 207.701 39.5061C207.034 36.2416 203.399 34.9888 200.842 37.1674C199.362 38.4288 198.603 40.0774 198.584 42.0013C198.541 46.1865 198.572 50.3733 198.569 54.5585C198.569 55.7837 198.512 55.8405 197.326 55.844C195.893 55.8491 194.459 55.8509 193.026 55.844C191.983 55.8388 191.892 55.7528 191.89 54.7134C191.881 50.0395 191.883 45.3673 191.876 40.6935C191.876 40.2925 191.893 39.8829 191.814 39.494C191.511 38.0089 190.854 36.7062 189.262 36.3483C187.414 35.9335 185.643 36.1813 184.327 37.7577C182.826 39.5542 182.47 41.738 182.434 43.9683C182.375 47.5511 182.42 51.1357 182.417 54.7202C182.417 55.7958 182.368 55.8405 181.305 55.844C179.928 55.8491 178.553 55.8491 177.177 55.844C176.092 55.8405 176.051 55.801 176.049 54.7375C176.046 51.6416 176.049 48.5441 176.049 45.4482H176.043L176.037 45.4517Z" fill="#DCDCDC"/>
<path d="M7.37489 62.0494C6.33893 62.1182 5.46817 61.7138 4.74197 61.0082C3.4668 59.7692 2.20025 58.5216 0.964665 57.2447C-0.329427 55.9076 -0.324265 53.8408 1.01285 52.5175C3.3756 50.1788 5.64026 47.7386 8.13724 45.5376C8.68447 45.0558 8.44699 44.7443 8.05292 44.3537C5.76933 42.0959 3.49434 39.8295 1.22452 37.558C-0.37417 35.9593 -0.396541 33.9889 1.17461 32.3902C2.26048 31.2854 3.35839 30.1944 4.47007 29.1154C6.33033 27.3119 8.47109 27.3068 10.3262 29.1223C12.2931 31.0479 14.2239 33.0097 16.1857 34.9405C18.6982 37.4134 21.233 39.8639 23.7403 42.3403C25.3339 43.9131 25.339 45.93 23.7524 47.4994C19.2282 51.9737 14.6886 56.4342 10.1558 60.9015C9.38831 61.6587 8.49518 62.1182 7.37662 62.0476L7.37489 62.0494Z" fill="#DCDCDC"/>
<path d="M170.187 43.8899C170.381 50.918 165.064 56.1442 157.889 56.2113C154.883 56.2389 152.063 55.6916 149.581 53.9278C146.475 51.7199 144.947 48.6309 144.716 44.8691C144.556 42.2482 144.868 39.6945 146.167 37.3713C147.946 34.1894 150.676 32.2276 154.233 31.4653C157.75 30.7133 161.156 31.0729 164.301 32.8764C168.003 34.9965 169.817 38.3315 170.182 42.515C170.221 42.971 170.187 43.4322 170.187 43.8917V43.8899ZM151.426 43.1362C151.348 45.0498 151.615 46.7844 152.441 48.4124C153.477 50.455 155.25 51.3275 157.42 51.3379C159.548 51.3465 161.316 50.5222 162.4 48.5483C162.963 47.5244 163.291 46.4299 163.395 45.2838C163.61 42.9263 163.661 40.5945 162.24 38.4933C160.015 35.2064 154.931 35.1651 152.706 38.4468C151.725 39.8958 151.264 41.491 151.426 43.1362Z" fill="#DCDCDC"/>
<path d="M264.325 41.9019C264.325 44.9994 264.308 48.097 264.337 51.1928C264.344 51.9638 264.106 52.2804 263.303 52.2494C262.043 52.2012 260.778 52.2804 259.518 52.2288C258.708 52.1961 258.131 52.4628 257.553 53.0393C254.805 55.7738 251.463 56.5981 247.737 55.7738C244.629 55.0854 242.59 52.5144 242.115 49.0228C241.933 47.6788 241.952 46.3365 241.948 44.9891C241.941 40.8883 241.959 36.7874 241.926 32.6866C241.919 31.8778 242.162 31.5508 243.003 31.5818C244.378 31.6317 245.757 31.587 247.132 31.5904C248.269 31.5921 248.302 31.6214 248.303 32.7382C248.309 36.8959 248.317 41.0552 248.307 45.2128C248.305 46.1077 248.379 46.9887 248.562 47.8612C249.181 50.8091 251.7 52.0601 254.462 50.8039C256.657 49.8058 257.378 47.8423 257.767 45.6929C258.142 43.6176 257.925 41.5164 257.949 39.4255C257.976 37.1609 257.975 34.8945 257.939 32.6298C257.927 31.8623 258.162 31.5422 258.968 31.568C260.399 31.6162 261.836 31.6145 263.268 31.568C264.051 31.5422 264.328 31.8176 264.32 32.6075C264.287 35.705 264.306 38.8026 264.306 41.8984H264.32L264.325 41.9019Z" fill="#DCDCDC"/>
<path d="M105.104 45.7091C102.638 45.7091 100.172 45.7039 97.7058 45.7108C96.7266 45.7142 96.6388 45.833 96.8453 46.7605C97.4373 49.4107 99.4369 51.2176 102.154 51.5566C103.452 51.7195 104.1 52.4664 104.1 53.7972C104.1 54.3995 104.095 55.0018 104.094 55.6041C104.094 56.0412 103.906 56.2786 103.445 56.3475C99.0325 57.0049 93.5894 54.1362 91.8066 49.9424C89.7777 45.1687 90.0255 40.395 92.7152 35.9173C94.4774 32.985 97.3082 31.5515 100.655 31.2882C103.834 31.0387 106.909 31.4397 109.502 33.5718C111.261 35.0173 112.18 36.9585 112.777 39.0975C113.29 40.932 113.421 42.818 113.565 44.7024C113.622 45.4423 113.345 45.7228 112.586 45.7125C110.093 45.6798 107.597 45.7005 105.102 45.7005V45.7091H105.104ZM102.044 41.3931C103.56 41.3931 105.078 41.3931 106.594 41.3931C106.986 41.3931 107.337 41.3622 107.343 40.8132C107.363 38.8032 105.885 36.6263 103.947 36.1118C100.678 35.2445 97.7608 36.6195 96.8729 40.2281C96.6164 41.2727 96.7025 41.3897 97.7522 41.3949C99.1823 41.4018 100.614 41.3949 102.044 41.3949V41.3931Z" fill="#DCDCDC"/>
<path d="M137.317 44.3163C136.515 44.3163 135.711 44.2957 134.909 44.3232C134.279 44.3438 134.049 44.0737 134.045 43.4542C134.04 42.3683 134.13 41.2807 133.903 40.1983C133.438 37.9818 132.175 36.5724 130.323 36.273C127.828 35.8686 125.596 36.7772 124.55 38.7407C123.293 41.0983 122.868 43.6538 123.552 46.2316C124.288 49.0091 126.348 50.5304 129.081 51.1877C129.442 51.2738 129.814 51.322 130.184 51.3581C131.442 51.4803 131.445 51.4751 131.456 52.7726C131.462 53.7191 131.421 54.6673 131.473 55.6104C131.514 56.3744 131.132 56.6825 130.463 56.6704C124.871 56.5603 119.253 54.6191 117.627 47.4294C116.804 43.7949 117.109 40.2224 118.781 36.8736C120.662 33.1049 123.884 31.2446 128.01 30.9297C130.254 30.7593 132.473 31.014 134.622 31.7488C137.463 32.7194 139.172 34.7397 140.001 37.555C140.547 39.4067 140.722 41.3151 140.765 43.2442C140.784 44.0909 140.433 44.3645 139.638 44.3232C138.866 44.2819 138.091 44.3146 137.317 44.3146V44.3215V44.3163Z" fill="#DCDCDC"/>
<path d="M229.044 33.4637C229.044 33.5497 229.037 33.6375 229.046 33.7218C229.187 34.9247 229.046 35.8557 227.549 36.1551C226.522 36.3599 226.066 37.2547 226.041 38.3096C226.019 39.3215 226.735 39.7758 227.494 40.1423C228.869 40.8049 230.383 41.0768 231.81 41.6016C232.946 42.0198 234.061 42.4879 234.973 43.3019C238.122 46.1103 237.745 51.7375 234.276 54.1485C232.299 55.5217 230.073 56.0552 227.716 56.1997C227.06 56.2393 226.766 55.995 226.788 55.3135C226.819 54.3687 226.818 53.4206 226.788 52.4741C226.769 51.8907 226.957 51.5586 227.573 51.4794C228.146 51.4054 228.678 51.1783 229.172 50.8737C230.812 49.8618 230.836 47.7193 229.22 46.6816C228.137 45.9864 226.89 45.73 225.68 45.3824C224.575 45.064 223.495 44.6958 222.476 44.152C220.473 43.0816 219.533 41.4106 219.375 39.1546C219.053 34.5822 222.128 32.4036 225.203 31.5707C226.169 31.3091 227.153 31.1043 228.165 31.0734C228.781 31.0544 229.077 31.2764 229.046 31.9166C229.022 32.4311 229.041 32.9491 229.043 33.4654L229.044 33.4637Z" fill="#DCDCDC"/>
<path d="M271.024 46.2276C271.024 43.4776 271.045 40.726 271.012 37.976C271.003 37.2016 271.251 36.8901 272.048 36.9211C273.278 36.9693 274.512 36.9039 275.743 36.9435C276.431 36.9659 276.734 36.7009 276.958 36.04C278.04 32.8341 280.869 30.8155 284.032 30.9136C285.163 30.948 285.312 31.0994 285.319 32.2214C285.33 33.7392 285.314 35.2588 285.359 36.7766C285.374 37.2911 285.233 37.3823 284.777 37.2343C283.695 36.8833 282.583 36.7921 281.471 37.0433C279.045 37.5871 278.207 39.468 277.77 41.6122C277.494 42.9579 277.383 44.3295 277.391 45.7096C277.408 48.6316 277.379 51.5554 277.417 54.4774C277.427 55.2742 277.136 55.5357 276.362 55.5134C274.903 55.4721 273.438 55.4755 271.979 55.5134C271.27 55.5323 271.017 55.2725 271.022 54.5652C271.048 51.786 271.033 49.0068 271.033 46.2276H271.026H271.024Z" fill="#DCDCDC"/>
</g>
<defs>
<clipPath id="clip0_1620_5379">
<rect width="285.283" height="90" fill="white"/>
</clipPath>
</defs>
</svg>
