<svg width="276" height="91" viewBox="0 0 276 91" fill="none" xmlns="http://www.w3.org/2000/svg">
<g clip-path="url(#clip0_1615_5019)">
<path d="M20.2342 15.627H9.42383V55.5526H20.2342V15.627Z" fill="#DCDCDC"/>
<path d="M20.0907 0H9.42383V10.1482H20.0907V0Z" fill="#DCDCDC"/>
<path fill-rule="evenodd" clip-rule="evenodd" d="M59.3626 18.8673C58.406 17.6762 57.1623 16.6281 55.6794 15.961C54.1488 15.2464 52.3789 14.8652 50.2742 14.8652C48.2174 14.8652 46.2084 15.1987 44.3429 16.0087C42.4295 16.771 40.7075 17.7239 39.0812 18.915V15.6275H28.9883V55.5532H39.7987V27.4432C40.851 26.3951 41.999 25.4898 43.2905 24.8705C44.582 24.2511 46.0171 23.9176 47.5477 23.9176C48.9827 23.9176 49.9394 24.3464 50.5134 25.2516C50.7526 25.8233 50.9439 26.4904 51.1352 27.3003C51.3266 28.1579 51.4222 29.2061 51.4222 30.3972V55.5532H62.2327V28.682C62.2327 26.7762 61.9935 24.9658 61.5151 23.2506C61.0368 21.5354 60.3671 20.0584 59.3626 18.8673Z" fill="#DCDCDC"/>
<path fill-rule="evenodd" clip-rule="evenodd" d="M82.4188 2.95312H71.6084V15.6264H66.2988V24.6311H71.6084V46.7856C71.6084 50.0254 72.565 52.4076 74.3349 53.9798C76.1525 55.5521 78.6399 56.3144 81.7491 56.3144C82.6579 56.3144 83.4233 56.3144 84.1886 56.2667C84.9539 56.2191 85.5758 56.1715 86.1019 56.1715C86.6281 56.1238 87.2021 56.0762 87.7761 55.9809C88.3501 55.9332 89.0676 55.7427 89.9286 55.5997V46.4044L87.2978 47.0238C86.5324 47.2144 85.7193 47.3097 84.8583 47.3097C84.1408 47.3097 83.5189 47.1667 83.0884 47.0238C82.6579 46.8809 82.4188 46.3568 82.4188 45.4992V24.6788H89.9286V15.6741H82.4188V2.95312Z" fill="#DCDCDC"/>
<path fill-rule="evenodd" clip-rule="evenodd" d="M114.611 45.9295C113.367 46.8348 111.788 47.3112 109.923 47.3112C109.684 47.3112 109.397 47.3112 109.205 47.3112C108.057 47.2159 107.149 46.9777 106.383 46.5013C105.522 45.9772 104.805 45.2625 104.279 44.4049C103.752 43.5473 103.37 42.4992 103.178 41.4033C102.939 40.2599 102.748 39.1164 102.652 37.9253H109.205H125.852V32.7798C125.852 30.1594 125.421 27.8248 124.512 25.7285C123.603 23.6321 122.407 21.7264 120.925 20.0588C117.863 16.6761 114.037 14.9609 109.349 14.9609H109.253C106.192 14.9609 103.609 15.5327 101.456 16.6761C99.256 17.8196 97.4383 19.3442 96.0033 21.2023C94.5683 23.0604 93.516 25.2997 92.8463 27.7772C92.1766 30.2547 91.8418 32.8751 91.8418 35.6861C91.8418 38.3541 92.1766 40.9745 92.8463 43.452C93.516 45.9295 94.5683 48.1211 95.9077 50.0269C97.2948 51.9327 99.0647 53.4573 101.217 54.6007C103.418 55.7442 106.001 56.3159 108.966 56.3159H109.205C112.936 56.3159 116.093 55.6489 118.676 54.4102C120.016 53.7908 121.307 52.9332 122.551 51.8374C123.795 50.6939 124.943 49.3122 126.139 47.5494L118.102 42.4039C117.05 43.8808 115.902 45.0243 114.611 45.9295ZM103.322 27.396C103.609 26.5384 103.992 25.8714 104.47 25.2044C104.948 24.585 105.57 24.1086 106.383 23.7751C107.149 23.4416 108.105 23.251 109.205 23.251C111.167 23.251 112.697 23.8704 113.845 25.1567C114.945 26.3955 115.567 28.0154 115.711 30.0164H109.205H102.7C102.796 29.1588 103.035 28.2536 103.322 27.396Z" fill="#DCDCDC"/>
<path d="M143.502 0.761719H132.691V55.5523H143.502V0.761719Z" fill="#DCDCDC"/>
<path d="M164.021 0.761719H153.211V55.5523H164.021V0.761719Z" fill="#DCDCDC"/>
<path fill-rule="evenodd" clip-rule="evenodd" d="M192.675 45.9295C191.384 46.8348 189.853 47.3112 187.987 47.3112C187.7 47.3112 187.461 47.3112 187.222 47.3112C186.074 47.2159 185.165 46.9777 184.4 46.5013C183.539 45.9772 182.821 45.2625 182.295 44.4049C181.769 43.5473 181.386 42.5468 181.195 41.4033C180.956 40.2599 180.764 39.1164 180.621 37.9253H187.174H203.772V32.7798C203.772 30.1594 203.342 27.8248 202.433 25.7285C201.476 23.6321 200.328 21.7264 198.846 20.0588C195.784 16.6761 191.958 14.9609 187.27 14.9609H187.222C184.208 14.9609 181.578 15.5327 179.425 16.6761C177.225 17.8196 175.407 19.3442 173.972 21.2023C172.537 23.0604 171.485 25.2997 170.815 27.7772C170.145 30.3023 169.811 32.8751 169.811 35.6861C169.811 38.3541 170.145 40.9745 170.815 43.452C171.485 45.9295 172.537 48.1211 173.876 50.0269C175.264 51.9327 177.033 53.4573 179.186 54.6007C181.338 55.7442 183.969 56.3159 186.935 56.3159H187.174C190.905 56.3159 194.062 55.6489 196.645 54.4102C197.985 53.7908 199.276 52.9332 200.52 51.8374C201.716 50.6939 202.911 49.3122 204.107 47.5494L196.119 42.5468C195.115 43.8808 193.919 45.0243 192.675 45.9295ZM181.338 27.396C181.578 26.5384 182.008 25.8714 182.486 25.2044C182.965 24.585 183.587 24.1086 184.352 23.7751C185.117 23.4416 186.026 23.251 187.222 23.251C189.183 23.251 190.714 23.8704 191.862 25.1567C192.914 26.3955 193.584 28.0154 193.727 30.0164H187.222H180.717C180.86 29.1588 181.099 28.2536 181.338 27.396Z" fill="#DCDCDC"/>
<path fill-rule="evenodd" clip-rule="evenodd" d="M230.989 43.2599C230.511 44.0222 229.937 44.6892 229.315 45.2609C228.693 45.8803 228.023 46.3091 227.258 46.6902C226.445 47.0714 225.584 47.262 224.531 47.262C222.044 47.262 220.322 46.3567 219.27 44.451C218.122 42.4499 217.596 39.496 217.596 35.5415C217.596 31.5871 218.17 28.5855 219.27 26.6321C220.274 24.7264 221.996 23.8211 224.388 23.8211C225.44 23.8211 226.301 23.9641 227.019 24.2976C227.736 24.6311 228.358 25.0599 228.932 25.5839C229.458 26.1557 229.937 26.775 230.319 27.5373C230.702 28.252 231.085 29.0143 231.419 29.8719L240.508 26.3462C239.695 24.107 238.69 22.2012 237.638 20.7719C236.586 19.3426 235.246 18.1991 233.715 17.3415C230.798 15.674 227.688 14.8164 224.34 14.8164C218.983 14.8164 214.678 16.7222 211.521 20.4384C208.364 24.1546 206.785 29.2525 206.785 35.5892C206.785 38.4002 207.12 41.0206 207.838 43.4981C208.507 45.9756 209.56 48.1672 211.042 50.073C212.477 51.9311 214.295 53.4557 216.543 54.5515C218.791 55.6473 221.422 56.219 224.484 56.219C228.215 56.219 231.324 55.4567 233.715 53.9321C234.959 53.1698 236.107 52.074 237.255 50.74C238.403 49.4059 239.599 47.6908 240.795 45.4991L232.424 40.7824C231.993 41.7353 231.467 42.4976 230.989 43.2599Z" fill="#DCDCDC"/>
<path fill-rule="evenodd" clip-rule="evenodd" d="M266.529 24.6311V15.6264H259.019V2.95312H248.257V15.6264H242.947V24.6311H248.257V46.7856C248.257 50.0254 249.166 52.4076 250.983 53.9798C252.801 55.5521 255.288 56.3144 258.398 56.3144C259.306 56.3144 260.12 56.3144 260.837 56.2667C261.555 56.2191 262.176 56.1715 262.75 56.1715C263.277 56.1238 263.851 56.0762 264.472 55.9809C265.046 55.9332 265.764 55.7427 266.577 55.5997V46.4044L263.946 47.0238C263.181 47.2144 262.368 47.3097 261.507 47.3097C260.789 47.3097 260.167 47.2144 259.737 47.0238C259.306 46.8809 259.067 46.3568 259.067 45.4992V24.6788L266.529 24.6311Z" fill="#DCDCDC"/>
<path fill-rule="evenodd" clip-rule="evenodd" d="M14.3029 66.0352H24.0609C26.7396 66.0352 28.9878 68.2268 28.9878 70.8948V80.6619C28.9878 83.3299 26.7396 85.5215 24.0609 85.5215H14.3029C11.6242 85.5215 9.42383 83.3299 9.42383 80.6619V70.8948C9.42383 68.2268 11.6242 66.0352 14.3029 66.0352Z" fill="#DCDCDC"/>
<path fill-rule="evenodd" clip-rule="evenodd" d="M39.2716 66.0352H49.0775C51.7562 66.0352 53.9565 68.2268 53.9565 70.8948V80.6619C53.9565 83.3299 51.7562 85.5215 49.0775 85.5215H39.2716C36.5929 85.5215 34.3926 83.3299 34.3926 80.6619V70.8948C34.3926 68.2268 36.5929 66.0352 39.2716 66.0352Z" fill="#DCDCDC"/>
<path fill-rule="evenodd" clip-rule="evenodd" d="M64.2404 66.0352H74.0463C76.7249 66.0352 78.9253 68.2268 78.9253 70.8948V80.6619C78.9253 83.3299 76.7249 85.5215 74.0463 85.5215H64.2404C61.5617 85.5215 59.3613 83.3299 59.3613 80.6619V70.8948C59.3613 68.2268 61.5617 66.0352 64.2404 66.0352Z" fill="#DCDCDC"/>
<path d="M92.8926 66.082H98.2021C104.373 66.082 105.186 70.5129 105.186 75.992C105.186 80.9946 103.942 85.9019 98.4891 85.9019H92.8926V66.082ZM95.3321 83.9009H97.9151C102.172 83.9009 102.603 79.5653 102.603 76.0396C102.603 72.2281 102.364 68.0831 97.9151 68.0831H95.3321V83.9009Z" fill="#DCDCDC"/>
<path d="M109.969 78.7081C109.969 80.995 109.969 84.4254 112.839 84.4254C115.087 84.4254 115.374 82.0908 115.374 80.995H117.718C117.718 82.5672 116.761 86.2835 112.695 86.2835C109.06 86.2835 107.529 83.7583 107.529 78.6604C107.529 74.9442 108.247 70.6562 112.839 70.6562C117.383 70.6562 117.814 74.6107 117.814 77.8028V78.7557H109.969V78.7081ZM115.374 76.8976V76.0877C115.374 74.4201 114.848 72.4667 112.791 72.4667C110.351 72.4667 110.064 75.4683 110.064 76.3735V76.9453L115.374 76.8976Z" fill="#DCDCDC"/>
<path d="M126.806 75.3718C126.806 73.4661 126.28 72.4655 124.606 72.4655C123.84 72.4655 122.166 72.6561 122.166 74.7524C122.166 76.5153 123.984 76.8488 125.849 77.4205C127.667 78.0399 129.485 78.6593 129.485 81.6132C129.485 84.7577 127.428 86.2823 124.653 86.2823C119.583 86.2823 119.535 82.5184 119.535 80.9938H121.879C121.879 82.8043 122.357 84.4242 124.653 84.4242C125.419 84.4242 127.141 84.043 127.141 81.9467C127.141 79.9456 125.323 79.5168 123.505 78.9451C121.688 78.3257 119.822 77.8017 119.822 74.7048C119.822 71.9415 122.023 70.6074 124.606 70.6074C128.958 70.6074 129.102 73.609 129.15 75.3718H126.806Z" fill="#DCDCDC"/>
<path d="M131.877 66.082H134.221V68.7501H131.877V66.082ZM131.877 70.9894H134.221V85.8543H131.877V70.9894Z" fill="#DCDCDC"/>
<path d="M147.28 84.9494C147.28 89.3803 145.223 91.0002 142.21 91.0002C141.301 91.0002 137.714 91.0002 137.283 87.284H139.627C139.723 88.618 140.823 89.1898 142.019 89.1898C145.032 89.1898 144.936 86.9028 144.936 85.8547V83.9013H144.889C144.41 85.14 142.975 85.9023 141.54 85.9023C137.187 85.9023 136.9 80.4233 136.9 78.4699C136.9 74.4678 138.001 70.6562 141.779 70.6562C143.406 70.6562 144.697 71.7521 145.032 72.9432H145.08V71.0374H147.328L147.28 84.9494ZM139.34 78.4222C139.34 80.8521 139.723 83.8536 142.066 83.8536C144.602 83.8536 145.08 81.4714 145.08 78.4222C145.08 75.5159 144.554 72.6096 142.066 72.6096C139.866 72.6096 139.34 74.8966 139.34 78.4222Z" fill="#DCDCDC"/>
<path d="M150.341 70.9886H152.589V72.7514H152.637C153.259 71.3697 154.789 70.6074 156.272 70.6074C160.195 70.6074 160.195 73.5614 160.195 75.3242V85.8535H157.803V75.5624C157.803 74.4189 157.707 72.5608 155.602 72.5608C154.359 72.5608 152.637 73.3708 152.637 75.5624V85.8535H150.293L150.341 70.9886Z" fill="#DCDCDC"/>
<path d="M170.621 72.8474H168.469V71.0369H170.621V69.2741C170.621 67.0348 171.578 65.8438 173.874 65.8438H175.548V67.8448H174.448C173.443 67.8448 172.965 68.2259 172.965 69.2741V71.0369H175.548V72.8474H172.965V85.9019H170.621V72.8474Z" fill="#DCDCDC"/>
<path d="M181.768 70.6074C186.073 70.6074 187.125 74.2284 187.125 78.421C187.125 82.6137 186.025 86.2346 181.768 86.2346C177.463 86.2346 176.41 82.6137 176.41 78.421C176.41 74.2284 177.51 70.6074 181.768 70.6074ZM184.733 78.421C184.733 75.1812 184.255 72.4179 181.768 72.4179C179.424 72.4179 178.898 75.1812 178.898 78.421C178.898 81.6608 179.376 84.4242 181.768 84.4242C184.207 84.4242 184.733 81.6608 184.733 78.421Z" fill="#DCDCDC"/>
<path d="M189.516 70.9886H191.859V73.2278H191.907C192.577 71.7985 193.486 70.6074 195.16 70.6074C195.638 70.6074 195.973 70.6551 196.212 70.7504V73.0373C195.973 72.9896 195.734 72.942 194.969 72.942C193.821 72.942 191.907 73.9901 191.907 76.4676V85.8535H189.563L189.516 70.9886Z" fill="#DCDCDC"/>
<path d="M204.775 66.082H210.085C216.255 66.082 217.069 70.5129 217.069 75.992C217.069 80.9946 215.825 85.9019 210.372 85.9019H204.823L204.775 66.082ZM207.215 83.9009H209.798C214.055 83.9009 214.486 79.5653 214.486 76.0396C214.486 72.2281 214.246 68.0831 209.798 68.0831H207.215V83.9009Z" fill="#DCDCDC"/>
<path d="M220.082 66.082H222.426V68.7501H220.082V66.082ZM220.082 70.9894H222.426V85.8543H220.082V70.9894Z" fill="#DCDCDC"/>
<path d="M235.438 84.9494C235.438 89.3803 233.381 91.0002 230.367 91.0002C229.458 91.0002 225.871 91.0002 225.488 87.284H227.832C227.928 88.618 228.98 89.1898 230.224 89.1898C233.237 89.1898 233.142 86.9028 233.142 85.8547V83.9013H233.094C232.615 85.14 231.18 85.9023 229.745 85.9023C225.392 85.9023 225.105 80.4233 225.105 78.4699C225.105 74.4678 226.206 70.6562 229.984 70.6562C231.611 70.6562 232.902 71.7521 233.237 72.9432H233.285V71.0374H235.533L235.438 84.9494ZM227.497 78.4222C227.497 80.8521 227.88 83.8536 230.176 83.8536C232.711 83.8536 233.237 81.4714 233.237 78.4222C233.237 75.5159 232.759 72.6096 230.224 72.6096C228.071 72.6096 227.497 74.8966 227.497 78.4222Z" fill="#DCDCDC"/>
<path d="M238.643 66.082H240.986V68.7501H238.643V66.082ZM238.643 70.9894H240.986V85.8543H238.643V70.9894Z" fill="#DCDCDC"/>
<path d="M244.908 66.6543H247.252V70.9899H249.835V72.8004H247.252V82.3292C247.252 83.5203 247.539 83.9967 248.783 83.9967C249.261 83.9967 249.548 83.9491 249.835 83.9014V85.8072C249.548 85.8548 248.926 85.9978 247.922 85.9978C245.482 85.9978 244.908 84.9972 244.908 83.0438V72.7527H242.756V70.9423H244.908V66.6543Z" fill="#DCDCDC"/>
<path d="M251.078 75.5159C251.078 72.1332 252.513 70.6562 256.101 70.6562C260.645 70.6562 260.645 73.372 260.645 74.9442V83.2343C260.645 83.8536 260.645 84.4254 261.362 84.4254C261.649 84.4254 261.793 84.3777 261.936 84.2824V85.95C261.745 85.9976 261.171 86.0929 260.597 86.0929C259.688 86.0929 258.588 86.0929 258.492 84.1871H258.444C257.679 85.5212 256.244 86.3311 254.857 86.3311C252.083 86.3311 250.791 84.6636 250.791 81.9955C250.791 79.8992 251.7 78.4699 253.613 77.8981L256.77 76.9453C258.492 76.4212 258.492 75.9447 258.492 74.706C258.492 73.3243 257.679 72.5144 256.101 72.5144C253.518 72.5144 253.518 74.8966 253.518 75.4206V75.5636L251.078 75.5159ZM258.253 77.7552C257.392 78.6604 255.335 78.851 254.283 79.518C253.518 79.9945 253.135 80.5662 253.135 81.8526C253.135 83.3295 253.661 84.4254 255.24 84.4254C256.77 84.4254 258.253 83.139 258.253 81.6144V77.7552Z" fill="#DCDCDC"/>
<path d="M263.945 66.082H266.289V85.9019H263.945V66.082Z" fill="#DCDCDC"/>
</g>
<defs>
<clipPath id="clip0_1615_5019">
<rect width="276" height="91" fill="white"/>
</clipPath>
</defs>
</svg>
