<svg width="258" height="90" viewBox="0 0 258 90" fill="none" xmlns="http://www.w3.org/2000/svg">
<g clip-path="url(#clip0_1617_5122)">
<path d="M53.8735 89.9679C48.387 90.2373 42.6309 88.9493 37.3575 85.8256C30.1714 81.5707 26.0913 75.0597 24.4006 67.0504C23.0741 60.7644 23.1659 54.4191 24.9039 48.1894C28.0455 36.929 36.7032 29.4379 48.2981 27.762C54.6345 26.8471 60.882 27.1017 66.9134 29.4231C75.956 32.9051 81.6884 39.4339 83.9209 48.8171C85.9995 57.5577 85.7478 66.2184 81.7624 74.4882C77.5224 83.291 70.2296 87.913 60.8435 89.6481C58.7354 90.039 56.6183 89.9028 53.8765 89.9649L53.8735 89.9679ZM54.1992 78.2071C54.7914 78.1716 55.2326 78.139 55.6767 78.1153C61.5482 77.7867 65.8238 75.0301 67.9556 69.5168C70.7478 62.2922 70.6353 54.9284 67.9379 47.7186C66.5255 43.9464 63.8548 41.1217 59.8694 39.807C57.8323 39.1349 55.7389 38.9868 53.6011 39.0076C47.5401 39.0638 42.4296 42.691 40.4576 48.4262C38.3968 54.4162 38.2814 60.5216 39.7322 66.6211C41.5591 74.3017 46.6371 78.2249 54.2022 78.2071H54.1992Z" fill="#DCDCDC"/>
<path d="M91.5097 58.7585C91.5097 50.764 91.4979 42.7695 91.5156 34.778C91.5245 31.1716 93.2152 28.8354 96.4219 27.8939C100.037 26.8309 103.679 27.9649 105.506 30.7393C106.033 31.5417 106.297 32.4329 106.302 33.3952C106.308 34.3339 106.3 35.2695 106.32 36.2081C106.326 36.5368 106.202 36.9839 106.569 37.1467C106.995 37.3333 107.14 36.8654 107.324 36.6108C112.227 29.8155 119.171 27.1773 127.218 27.2454C132.199 27.2869 137.025 28.341 140.998 31.7431C144.501 34.7425 146.216 38.7012 147.136 43.0922C147.788 46.1894 148.072 49.3161 148.066 52.4843C148.042 62.4033 148.066 72.3194 148.051 82.2385C148.045 85.1698 147.24 87.7044 144.288 89.0249C140.984 90.5024 137.762 90.304 134.952 88.036C133.028 86.4815 132.678 84.0772 132.675 81.6996C132.663 71.6325 132.669 61.5684 132.669 51.5012C132.669 49.2036 132.252 46.9681 131.376 44.8629C129.803 41.0907 126.644 39.6072 122.807 39.3467C113.66 38.7219 106.904 45.082 106.901 54.2549C106.901 63.037 106.901 71.822 106.901 80.6041C106.901 81.6404 106.764 82.6619 106.67 83.6923C106.234 88.4179 101.861 90.3721 98.1185 89.8599C93.4876 89.2292 91.5127 86.8427 91.5097 82.1526C91.5038 74.3566 91.5097 66.5605 91.5097 58.7644V58.7585Z" fill="#DCDCDC"/>
<path d="M185.549 27.7733C187.279 27.643 188.842 28.3685 190.059 29.6772C194.121 34.0386 198.118 38.4563 202.145 42.8533C203.51 44.3426 204.899 45.8112 206.237 47.3213C206.892 48.0615 207.389 48.0171 208.032 47.2946C213.015 41.7104 218.054 36.1734 223.008 30.5625C226.126 27.0331 230.872 26.7785 234.028 30.0917C236.063 32.2265 236.323 35.8774 234.47 38.2698C233.146 39.9782 231.669 41.5771 230.2 43.1701C226.123 47.5878 222.01 51.9699 217.918 56.3758C216.438 57.9717 216.438 58.2767 217.933 59.8815C222.303 64.5657 226.691 69.2321 231.053 73.9222C232.462 75.4352 233.922 76.9186 235.177 78.556C238.526 82.9233 236.388 88.6705 230.999 89.7542C228.871 90.1835 226.854 89.6121 225.317 87.9865C222.709 85.2329 220.148 82.4348 217.595 79.6278C215.244 77.04 212.932 74.4196 210.602 71.811C209.781 70.8931 208.935 69.9989 208.15 69.0485C207.46 68.2165 206.901 68.1484 206.137 69.007C203.88 71.5475 201.556 74.0287 199.267 76.5455C196.585 79.4976 193.884 82.4348 191.249 85.4283C189.875 86.9887 188.555 88.5372 186.494 89.2745C183.72 90.2664 180.747 89.3574 178.775 86.7785C177.007 84.4689 176.903 81.36 178.674 79.0771C179.971 77.4072 181.413 75.8468 182.843 74.2864C187.536 69.1669 192.244 64.0593 196.978 58.9755C197.588 58.3181 197.583 57.9184 196.976 57.267C192.137 52.0795 187.335 46.8594 182.526 41.6423C181.691 40.7362 180.868 39.8183 180.081 38.8738C178.295 36.7301 177.934 34.2133 179.062 31.8002C180.252 29.2627 182.375 27.6549 185.552 27.7733H185.549Z" fill="#DCDCDC"/>
<path d="M15.7077 45.6894C15.7077 57.7255 15.6544 69.7616 15.7343 81.7978C15.7669 86.9083 12.6816 89.7952 7.88493 89.8426C2.27399 89.8959 -0.00591033 85.718 1.15039e-05 81.7593C0.0385034 57.5893 0.017777 33.4194 0.0207379 9.24644C0.0207379 5.58083 1.895 2.80349 4.99212 1.80566C8.60443 0.642019 12.5306 1.76125 14.5411 4.63037C15.4382 5.90949 15.7195 7.41067 15.7166 8.98588C15.6988 21.2204 15.7077 33.4519 15.7077 45.6864V45.6894Z" fill="#DCDCDC"/>
<path d="M172.633 58.6616C172.633 66.4044 172.378 74.1591 172.71 81.89C173 88.7031 166.424 91.1606 161.411 89.088C157.763 87.5779 157.289 84.4334 157.269 81.1438C157.203 71.6748 157.245 62.2029 157.245 52.7339C157.245 47.6529 157.272 42.572 157.227 37.494C157.215 35.9544 157.375 34.4413 157.606 32.9342C158.139 29.47 161.769 27.0835 165.766 27.5128C170.385 28.0102 172.624 30.4915 172.627 35.1342C172.633 42.9776 172.627 50.8182 172.627 58.6616H172.633Z" fill="#DCDCDC"/>
<path d="M239.808 80.6825C239.808 75.2137 243.483 71.4237 248.765 71.4415C254.003 71.4592 257.926 75.3647 257.95 80.5789C257.973 85.8197 253.95 90.0153 248.789 89.959C243.047 89.8939 239.506 85.34 239.811 80.6825H239.808Z" fill="#DCDCDC"/>
<path d="M164.894 16.211C161.533 16.4271 158.859 15.2369 157.009 12.3233C154.489 8.35865 156.245 2.66184 160.589 0.920825C163.81 -0.370135 167.064 -0.361252 170.143 1.27613C173.383 2.99643 174.647 6.36003 173.747 10.2596C172.98 13.5876 170.022 16.0304 166.531 16.2051C165.992 16.2317 165.447 16.208 164.891 16.208L164.894 16.211Z" fill="#DCDCDC"/>
</g>
<defs>
<clipPath id="clip0_1617_5122">
<rect width="257.949" height="90" fill="white"/>
</clipPath>
</defs>
</svg>
