<svg width="117" height="90" viewBox="0 0 117 90" fill="none" xmlns="http://www.w3.org/2000/svg">
<g clip-path="url(#clip0_1617_5175)">
<path d="M91.5706 63.0766C94.5203 62.311 96.2188 63.8394 97.5194 66.232C97.9968 67.1101 98.6444 67.9003 99.2563 68.6961C99.8325 69.4452 100.675 69.6455 101.232 68.8689C104.684 64.0589 108.723 59.5616 109.785 53.429C110.731 47.9659 109.239 43.1531 105.589 39.0784C100.148 32.9952 93.0056 30.361 85.1142 29.3677C81.4566 28.9067 77.8236 29.1208 74.1825 29.5845C73.3099 29.6942 71.9544 30.1854 71.6142 29.1098C71.3315 28.2125 72.6239 27.7351 73.3785 27.2878C75.8151 25.8445 78.5288 25.1915 81.2782 24.6674C82.1288 24.5055 82.9959 24.3766 83.8163 24.1131C84.623 23.8552 85.3364 23.3256 85.4572 22.4284C85.5861 21.4735 84.9907 20.7848 84.2553 20.258C83.4047 19.6488 82.4142 19.4622 81.3907 19.4869C74.3937 19.6516 68.0306 21.4461 62.9873 26.643C62.6059 27.0354 62.1916 27.4113 61.7389 27.7077C61.1544 28.0918 60.5617 28.7888 59.7852 28.2647C59.0553 27.7708 59.2776 26.9641 59.434 26.2452C59.7523 24.7717 60.1227 23.3092 60.4081 21.8275C60.677 20.4281 61.0364 18.8119 59.6672 17.9037C58.3062 17.0009 57.0276 18.0848 55.9492 18.886C54.2672 20.14 52.7059 21.5586 51.0596 22.8619C49.438 24.1433 47.7038 25.2601 45.6898 25.8226C43.9721 26.3028 43.009 25.8473 42.1968 24.2942C42.1117 24.1323 42.0349 23.965 41.9498 23.8058C41.6645 23.279 41.3709 22.6753 40.6904 22.6781C39.9331 22.6808 39.634 23.3449 39.398 23.9348C38.7779 25.4686 38.5227 27.104 38.1962 28.7174C38.0425 29.483 37.8532 30.2348 37.4965 30.9345C37.3346 31.2528 37.1864 31.6424 36.7392 31.6314C36.3084 31.6205 36.1163 31.272 35.9819 30.9317C35.6855 30.1634 35.444 29.3759 35.134 28.6131C34.8706 27.9683 34.5386 27.3016 33.7072 27.3345C32.9581 27.3647 32.6727 27.982 32.412 28.5912C32.1404 29.2195 31.888 29.8671 31.5312 30.4461C30.7547 31.7083 29.959 31.8482 28.6968 31.025C28.4745 30.8796 28.288 30.5888 27.9861 30.7424C27.6267 30.9235 27.6706 31.3159 27.7694 31.5958C28.9383 34.9378 29.6956 38.5214 32.9855 40.6452C33.2407 40.8098 33.6962 40.9854 33.463 41.3421C32.6837 42.5247 33.002 43.8308 32.98 45.0848C32.9608 46.2564 32.5163 46.2949 31.641 45.8064C29.2895 44.4921 27.3715 42.6839 25.6675 40.6314C22.2075 36.4635 19.373 31.9772 18.5498 26.4811C18.5224 26.3 18.4538 26.1189 18.4593 25.9406C18.5005 24.5686 18.4154 23.065 19.7462 22.2363C20.9892 21.4625 22.2184 22.0936 23.3434 22.7659C23.8126 23.0458 24.2681 23.3558 24.7072 23.6824C26.8584 25.2711 28.3511 25.3561 30.5901 23.8497C33.0706 22.1787 34.8431 19.8272 36.3248 17.2945C39.2224 12.3363 42.4437 7.6415 46.6611 3.69577C48.1017 2.34851 49.6108 1.08906 51.4822 0.359182C52.3602 0.0161938 53.2904 -0.277404 53.9681 0.67473C54.6486 1.62961 54.4044 2.59546 53.7294 3.45705C52.8843 4.5354 51.9706 5.56162 51.1447 6.65644C50.3654 7.68815 49.7947 8.83784 49.6767 10.1549C49.4791 12.3253 50.4861 13.357 52.662 13.1019C54.355 12.9043 55.9465 12.3061 57.4858 11.5927C59.1898 10.8025 60.8087 9.86132 62.4194 8.90095C66.2992 6.59333 70.352 4.74943 74.9123 4.25004C75.6066 4.17321 76.2788 4.18967 76.9538 4.3351C77.3956 4.43113 77.9224 4.43388 78.0596 4.97991C78.1913 5.504 77.7797 5.82503 77.4532 6.13235C76.2843 7.22168 75.0907 8.28906 73.9163 9.3729C73.063 10.1577 72.4401 11.1263 71.9078 12.136C70.6264 14.5671 71.6005 16.5098 74.3114 16.968C77.2529 17.4647 80.1532 17.1327 82.9767 16.2903C87.5041 14.9375 92.0535 13.7796 96.8169 13.7412C98.1066 13.7302 99.366 13.958 100.614 14.2488C101.383 14.4272 102.082 14.7592 102.678 15.2833C104.184 16.6086 103.935 18.1369 102.074 18.8942C100.612 19.4869 99.045 19.5555 97.5084 19.7723C96.1913 19.9589 94.8907 20.1949 93.6861 20.8013C91.9218 21.6903 91.7764 22.7577 93.3075 24.0198C93.9001 24.5083 94.5971 24.8814 95.2666 25.2711C100.532 28.3388 105.704 31.5464 109.936 36.008C114.331 40.6452 116.751 46.1165 116.617 52.6031C116.507 57.9043 114.153 62.2287 110.932 66.254C108.849 68.8552 107.011 71.654 105.046 74.3513C104.343 75.3171 104.675 76.1403 105.271 76.9827C107.806 80.5662 110.333 84.1552 112.858 87.7442C113.19 88.2189 113.813 88.6964 113.541 89.2918C113.261 89.9064 112.496 89.7144 111.919 89.7253C110.594 89.7473 109.266 89.7089 107.941 89.7391C106.832 89.7638 106.042 89.3247 105.43 88.3863C104.286 86.622 103.084 84.8961 101.879 83.1702C100.727 81.5211 99.9367 81.5321 98.7678 83.1921C97.4782 85.025 96.1913 86.858 94.9264 88.7074C94.4435 89.4125 93.8178 89.7418 92.9645 89.7308C91.4553 89.7116 89.9462 89.7418 88.437 89.7308C87.9925 89.7281 87.4492 89.8214 87.1995 89.3412C86.9498 88.8583 87.3477 88.4741 87.6002 88.1119C90.0477 84.5805 92.5008 81.0491 94.962 77.526C96.0212 76.0086 96.0184 75.49 94.9566 73.9616C92.7916 70.8445 90.6404 67.7165 88.4974 64.5857C88.2532 64.229 87.7977 63.8695 88.0913 63.3756C88.3355 62.9668 88.8322 63.1095 89.23 63.1013C90.0066 63.0821 90.7858 63.0958 91.5623 63.0958L91.5706 63.0766Z" fill="#DCDCDC"/>
<path d="M-0.00153425 71.29C-0.00153425 65.8022 -0.00702206 60.3172 -0.00153425 54.8294C-0.00153425 52.9663 0.305783 52.6617 2.13597 52.6507C3.50792 52.6425 4.87987 52.6425 6.25182 52.6644C7.79938 52.6891 8.18353 53.0458 8.19725 54.6345C8.22743 57.8806 8.20822 61.1266 8.21097 64.3727C8.21097 64.7842 8.20273 65.1958 8.2192 65.6074C8.2384 66.0629 8.23017 66.5705 8.72133 66.801C9.28109 67.0644 9.68444 66.705 10.0384 66.3345C12.3104 63.9556 14.5851 61.5766 16.8433 59.1839C18.6954 57.2248 20.5229 55.2437 22.3668 53.2763C22.9814 52.6178 23.7991 52.4477 24.6305 52.519C26.5951 52.6919 28.5543 52.6919 30.5189 52.5409C30.9881 52.5053 31.5012 52.4916 31.7536 52.9361C32.0829 53.5123 31.5533 53.8608 31.2268 54.2092C27.6817 57.9629 24.1338 61.7166 20.564 65.4483C18.5829 67.5199 18.5994 67.4788 20.21 69.7672C24.4741 75.823 28.7079 81.898 32.9418 87.973C33.2381 88.401 33.7841 88.8263 33.4851 89.4272C33.175 90.0528 32.5 90.0117 31.9073 90.0144C29.896 90.0227 27.8847 90.0062 25.8707 90.0199C24.8225 90.0254 24.0378 89.6111 23.4506 88.733C20.4762 84.2879 17.4826 79.8565 14.4972 75.4169C13.1418 73.4028 13.021 73.5153 11.2018 75.0025C8.83932 76.937 7.79389 79.1952 8.17255 82.2602C8.39481 84.0602 8.22743 85.9123 8.19725 87.7425C8.16706 89.4656 7.71432 89.9211 5.97743 89.987C4.74542 90.0336 3.50792 90.0227 2.27316 90.0062C0.404564 89.9842 0.00395414 89.5973 0.00121024 87.7507C-0.00976537 82.2629 -0.00153425 76.7778 -0.00153425 71.29Z" fill="#DCDCDC"/>
<path d="M64.5701 90.0416C60.3829 89.9428 60.97 90.7989 59.7984 86.3895C58.7777 82.548 57.7816 78.6983 56.7664 74.8541C56.6072 74.2504 56.5496 73.4602 55.7265 73.4355C54.8429 73.4108 54.6893 74.2148 54.5137 74.8678C53.3749 79.151 52.2499 83.4398 51.1277 87.7285C50.5213 90.0416 50.5295 90.0443 48.0819 90.0416C46.8033 90.0416 45.5219 90.0087 44.2432 90.0361C43.3295 90.0553 42.7944 89.6602 42.5255 88.7959C39.9819 80.6849 37.4301 72.5794 34.8728 64.4712C34.5408 63.4148 34.9002 62.8687 36.0005 62.8577C37.5097 62.8385 39.0161 62.8577 40.5252 62.8523C41.6393 62.8468 41.9685 63.6123 42.2127 64.5041C43.4722 69.133 44.7454 73.7593 46.013 78.3882C46.0624 78.5638 46.0954 78.7449 46.1557 78.9178C46.3478 79.4776 46.485 80.1827 47.2121 80.18C47.9447 80.1773 48.0984 79.4721 48.2411 78.9013C49.3551 74.4233 50.4527 69.9398 51.5502 65.4562C52.1786 62.8852 52.239 62.8276 54.8429 62.8303C59.8066 62.8358 58.8929 62.3584 60.1359 66.9187C61.195 70.7986 62.1143 74.7141 63.1048 78.6132C63.2585 79.2224 63.3353 79.9934 64.1502 80.0373C65.0749 80.0867 65.1518 79.2553 65.3301 78.6105C66.5896 74.0748 67.8463 69.5392 69.0893 65.0007C69.6079 63.102 69.8768 62.8605 71.8194 62.8358C73.0542 62.8193 74.2862 62.8358 75.521 62.8577C75.831 62.8632 76.2124 62.8907 76.2783 63.2885C76.3359 63.637 75.9874 63.7138 75.7542 63.8291C67.9643 67.6431 67.314 77.244 69.8356 82.8334C70.1813 83.5962 70.2472 84.2959 69.9865 85.0751C69.5941 86.244 69.1935 87.4157 68.8752 88.6038C68.5926 89.652 68.0136 90.1404 66.9051 90.0526C66.1341 89.9922 65.3521 90.0416 64.5755 90.0416H64.5701Z" fill="#DCDCDC"/>
<path d="M69.1153 76.3247C69.1345 68.3372 74.5208 63.003 82.511 62.7561C85.3592 62.6683 87.3732 63.2719 88.8686 65.95C90.5068 68.886 92.6141 71.5695 94.5787 74.3161C95.3058 75.3341 95.2647 76.1738 94.5568 77.1671C92.2244 80.4378 89.9415 83.7442 87.6394 87.0369C87.3513 87.4485 86.926 87.8299 86.8162 88.2881C86.4403 89.8576 85.2714 90.0387 83.9927 90.0003C82.0308 89.9399 80.0689 89.8027 78.1647 89.2841C72.4436 87.7256 69.0988 82.9183 69.1153 76.3219V76.3247ZM89.4421 76.4207C89.5656 74.2037 88.9894 72.2116 87.7299 70.45C85.1836 66.8829 81.0266 66.6003 77.9973 69.7503C74.9653 72.903 74.7732 79.0466 77.6049 82.3722C80.7906 86.1149 85.7379 85.6375 88.1552 81.3405C89.0168 79.8067 89.5711 78.1768 89.4449 76.4207H89.4421Z" fill="#DCDCDC"/>
<path d="M34.6586 65.7793C34.9412 66.6766 35.2211 67.5711 35.5037 68.4683C37.4052 74.4747 39.315 80.4811 41.2083 86.4903C42.1934 89.6128 41.8943 90.0162 38.6839 90.0189C38.2723 90.0189 37.8607 90.0189 37.4519 90.0189C34.4748 90.0162 34.3238 89.8653 34.3238 86.8141C34.3211 80.2836 34.3211 73.7531 34.3184 67.2198C34.3184 66.7698 34.3184 66.3171 34.3184 65.8671C34.4309 65.8369 34.5461 65.8095 34.6586 65.7793Z" fill="#DCDCDC"/>
<path d="M38.0225 58.4838C34.3127 58.4838 34.1399 58.2698 34.3072 54.5353C34.3676 53.1881 34.974 52.4993 36.2966 52.4609C37.6136 52.4225 38.9362 52.3375 40.2505 52.5405C41.1917 52.6859 41.7158 53.2128 41.7185 54.1951C41.7185 54.3762 41.7267 54.56 41.7295 54.7411C41.7697 57.2362 40.5341 58.4838 38.0225 58.4838Z" fill="#DCDCDC"/>
<path d="M37.6165 44.1594C37.6165 46.585 37.5396 46.6975 35.5393 46.6674C34.804 46.6564 33.7915 46.9116 33.6268 45.8579C33.4293 44.5875 32.9985 43.0975 33.9698 42.0686C34.6997 41.2921 35.9784 41.5857 36.9716 41.8491C37.8168 42.0741 37.5671 42.9576 37.6137 43.6134C37.6274 43.7945 37.6137 43.9783 37.6137 44.1594H37.6165Z" fill="#DCDCDC"/>
<path d="M45.858 44.2594C45.858 46.5451 44.8346 47.2859 42.6093 46.6164C42.5654 46.6027 42.516 46.6027 42.4803 46.578C41.1715 45.6807 41.8657 44.3472 41.7833 43.2002C41.7257 42.4155 42.0797 41.7707 43.0236 41.7268C43.3419 41.713 43.6602 41.7048 43.9757 41.7076C45.6769 41.7158 45.8333 41.8722 45.858 43.5816C45.8608 43.8094 45.858 44.0371 45.858 44.2621V44.2594Z" fill="#DCDCDC"/>
</g>
<defs>
<clipPath id="clip0_1617_5175">
<rect width="116.616" height="90" fill="white"/>
</clipPath>
</defs>
</svg>
