<svg width="90" height="90" viewBox="0 0 90 90" fill="none" xmlns="http://www.w3.org/2000/svg">
<g clip-path="url(#clip0_1615_5054)">
<path d="M0 0H90V90H0V0Z" fill="#DCDCDC"/>
<mask id="mask0_1615_5054" style="mask-type:luminance" maskUnits="userSpaceOnUse" x="0" y="0" width="90" height="90">
<path d="M0 0H90V90H0V0Z" fill="white"/>
</mask>
<g mask="url(#mask0_1615_5054)">
<path d="M23.709 113.094L-33.2854 45.5059L34.1549 132.043C24.0104 88.6255 9.24108 60.5763 -29.4066 37.4493C-29.4066 55.202 -17.1735 62.6611 -7.47652 77.4353C8.78459 102.054 18.4861 117.72 43.8496 133.236C43.8496 117.721 34.7494 110.262 25.9475 97.5771C9.38804 73.8572 -2.10364 62.221 -21.3514 39.837C-3.59847 88.0295 20.5754 109.515 59.3693 142.487C68.022 123.988 52.656 111.453 43.8541 93.4C38.1851 81.6147 35.649 74.4539 28.7865 63.2608C11.9286 35.8113 -1.0504 14.174 -33.2802 8.65273C-35.6672 31.3284 -16.8699 41.3288 -0.608812 56.9944C22.8131 79.5209 40.4236 89.2222 55.4905 119.361C22.3671 56.3984 4.76108 18.5002 -54.3234 -21.4858C-49.4003 2.23865 -37.4656 12.8306 -22.5471 31.7812C-3.30233 56.247 7.14505 71.3181 32.361 89.9696C25.2001 68.9312 13.4145 60.2824 -1.80677 44.3132C-24.3336 20.8916 -38.6605 4.47638 -70.2914 -3.72938C-75.2145 25.9578 -44.4825 36.4043 -21.3544 54.9074C2.22122 73.8535 16.2468 84.147 45.0416 95.191C31.0205 55.9494 3.11931 28.1986 -38.6576 28.1986C-38.6576 62.9639 -19.562 82.8066 7.59559 104.442C23.8567 117.272 33.5537 125.328 53.7003 131.444C67.8728 100.708 41.4672 78.6265 22.6647 50.7273C7.14952 27.5996 -3.59176 14.4708 -26.4237 -1.34471C-35.5239 11.9325 -24.7827 24.4638 -17.771 38.6405C-7.77564 58.7801 -1.95744 70.4208 11.7675 88.1757C27.1335 108.166 37.1289 119.653 58.7666 133.235C58.7666 108.918 46.8318 96.5314 34.7479 75.6429C11.4751 35.6562 -0.76247 11.0389 -33.2877 -22.084C-31.4975 -1.34396 -20.7562 8.35362 -9.86571 25.8101C5.20192 50.1268 14.0038 64.4528 33.5522 85.4912C51.6035 104.885 64.1395 122.936 90.6965 122.936C90.6965 87.2769 83.0531 130.668 68.7664 98.0679C57.3344 71.9603 19.1328 28.1359 9.88184 14.2612C0.33403 0.0889344 -21.5603 -7.83337 -38.7187 -10.0718C-38.7187 41.4027 14.0105 55.3534 47.4353 94.5935C54.447 85.7918 47.4353 76.2441 42.6614 66.2489C33.2628 46.5569 26.1019 25.3671 4.16733 25.3671" stroke="white" stroke-width="0.716" stroke-miterlimit="3.864"/>
</g>
<path d="M16.8145 16.8145H73.1868V73.1858H16.8145V16.8145Z" fill="white"/>
<path d="M23.0215 50.6652C23.4483 50.6618 23.8682 50.5567 24.2463 50.3586C24.426 50.1837 24.5622 49.9691 24.6439 49.7321C24.7257 49.495 24.7507 49.2421 24.717 48.9936V42.9062C24.7623 42.5104 24.6797 42.1104 24.4813 41.765C24.3839 41.6659 24.2655 41.5901 24.1348 41.5429C24.0041 41.4958 23.8646 41.4787 23.7264 41.4927C23.6017 41.4905 23.477 41.498 23.3534 41.5151C23.2574 41.5365 23.163 41.5644 23.0707 41.5986V41.1869L23.9188 40.9027C24.2257 40.8032 24.7279 40.6188 25.4256 40.3492C26.1233 40.0797 26.4925 39.9467 26.5333 39.9502C26.5503 39.9489 26.5672 39.9542 26.5804 39.9651C26.5936 39.9759 26.6021 39.9914 26.6042 40.0084C26.6125 40.0827 26.6167 40.1574 26.6168 40.2321V41.8217C27.2158 41.242 27.8939 40.75 28.6308 40.3604C29.1724 40.0915 29.7686 39.9507 30.3733 39.9487C30.736 39.9325 31.0978 39.9979 31.432 40.1398C31.7662 40.2818 32.0643 40.4969 32.3045 40.7692C32.5884 41.1296 32.8002 41.5414 32.9281 41.982C33.3887 41.4953 33.8981 41.0572 34.4483 40.6745C35.1208 40.211 35.9156 39.9571 36.7323 39.945C37.2644 39.8938 37.7988 40.0164 38.2554 40.2945C38.7119 40.5726 39.066 40.9912 39.2647 41.4875C39.5528 42.3761 39.6764 43.3099 39.6294 44.2429V49.1293C39.6048 49.3348 39.6246 49.5431 39.6877 49.7402C39.7508 49.9372 39.8556 50.1184 39.9949 50.2713C40.4002 50.5175 40.8635 50.6516 41.3376 50.6599V50.968H36.0207V50.6376C36.5003 50.6446 36.9701 50.5006 37.3633 50.2258C37.6318 49.85 37.7492 49.387 37.6923 48.9287V43.8565C37.7232 43.2845 37.6395 42.7121 37.4461 42.173C37.2981 41.8534 37.0538 41.5881 36.7475 41.4143C36.4412 41.2404 36.0883 41.1666 35.738 41.2033C35.1923 41.2154 34.663 41.3919 34.2193 41.7098C33.8335 41.9896 33.4749 42.305 33.1481 42.6519V48.6803C33.1153 49.1846 33.2296 49.6875 33.4771 50.1281C33.658 50.32 33.8807 50.4676 34.1279 50.5595C34.3751 50.6513 34.6402 50.6849 34.9025 50.6577V50.9658H29.4976V50.6577C30.0225 50.6568 30.529 50.4639 30.9215 50.1154C31.1941 49.4984 31.2996 48.8206 31.2274 48.15V44.8523C31.2681 44.0134 31.1887 43.1729 30.9917 42.3565C30.8934 42.0028 30.6752 41.6943 30.3745 41.4839C30.0737 41.2735 29.7091 41.1743 29.3432 41.2033C28.8449 41.2088 28.3572 41.3474 27.9304 41.6046C27.4628 41.8674 27.0481 42.2147 26.7071 42.6287V49.0682C26.6618 49.5035 26.7699 49.9409 27.0129 50.3049C27.4081 50.589 27.8953 50.7151 28.3787 50.6585V50.9665H23.0215V50.6652Z" fill="#DCDCDC"/>
<path d="M46.6976 41.9333C46.6976 36.6373 46.6975 35.6601 46.7669 34.5443C46.8378 33.3254 47.116 32.7325 48.0566 32.5594C48.378 32.4931 48.7049 32.4577 49.033 32.4535C49.3113 32.4535 49.5201 32.3841 49.5201 32.1402C49.5201 31.8963 49.2769 31.8262 48.7876 31.8262C47.6031 31.8262 45.4071 31.9321 44.5717 31.9321C43.7362 31.9321 41.5395 31.8262 39.6926 31.8262C39.1704 31.8262 38.9258 31.8948 38.9258 32.1402C38.9258 32.3856 39.1346 32.4535 39.518 32.4535C39.9734 32.4451 40.4285 32.4806 40.8771 32.5594C42.0266 32.8026 42.3071 33.3598 42.3779 34.5443C42.4458 35.6631 42.4458 36.6365 42.4458 41.9333V48.0676C42.4458 51.275 42.4458 54.0282 42.272 55.4924C42.1325 56.5031 41.9587 57.2692 41.2613 57.4094C40.8495 57.5025 40.4287 57.5495 40.0066 57.5496C39.5897 57.5496 39.4494 57.6541 39.4494 57.8271C39.4494 58.0725 39.6941 58.1769 40.1469 58.1769C41.541 58.1769 43.7377 58.0718 44.5381 58.0718C45.4086 58.0718 47.6053 58.1769 49.5574 58.1769C49.9408 58.1769 50.2205 58.0718 50.2205 57.8271C50.2205 57.6541 50.0445 57.5496 49.7663 57.5496C49.1946 57.536 48.6243 57.4892 48.0581 57.4094C47.1869 57.2692 46.8736 56.5031 46.8042 55.5267C46.699 54.0282 46.699 51.275 46.699 48.0676V44.8968H46.8736L47.2585 45.4189C47.9902 46.4296 54.8564 54.4824 56.3893 55.8407C57.8871 57.1647 58.8285 57.9293 60.7112 58.1061C61.4429 58.1762 62.0703 58.1762 63.1175 58.1762H66.1475C66.8106 58.1762 66.9851 58.071 66.9851 57.8264C66.9851 57.6175 66.7748 57.5489 66.5324 57.5489C65.7853 57.5095 65.0519 57.3325 64.3692 57.0267C62.4865 56.295 60.9193 54.7264 59.3842 53.2614C58.0251 51.9732 51.1947 44.6193 49.9393 42.9798C51.1239 41.7259 56.3878 36.4986 57.4679 35.452C58.5282 34.3287 59.8105 33.4381 61.2333 32.8369C61.8837 32.6078 62.565 32.4788 63.254 32.4542C63.6024 32.4542 63.7762 32.3849 63.7762 32.1409C63.7762 31.897 63.5315 31.8269 63.1794 31.8269C62.0993 31.8269 60.1831 31.9328 59.1022 31.9328C58.1616 31.9328 56.2439 31.8269 55.5121 31.8269C55.128 31.8269 54.9534 31.8955 54.9534 32.1409C54.9534 32.3498 55.0936 32.4207 55.4069 32.49C55.7553 32.5601 55.8948 32.8033 55.8948 33.186C55.8948 33.7782 55.128 34.6509 54.1523 35.7966C53.1416 36.9819 48.0529 42.1757 46.8676 43.4646H46.6976V41.9333Z" fill="#DCDCDC"/>
</g>
<defs>
<clipPath id="clip0_1615_5054">
<rect width="90" height="90" fill="white"/>
</clipPath>
</defs>
</svg>
